<mxfile host="Electron" modified="2024-05-17T10:09:58.901Z" agent="Mozilla/5.0 (X11; Linux x86_64) AppleWebKit/537.36 (KHTML, like Gecko) draw.io/24.0.4 Chrome/120.0.6099.109 Electron/28.1.0 Safari/537.36" etag="WlSQAmQ8BrdP0Rp_a6y9" version="24.0.4" type="device">
  <diagram name="Page-1" id="920D0bnUf0v4UWs8WVY2">
    <mxGraphModel dx="1707" dy="803" grid="0" gridSize="10" guides="1" tooltips="1" connect="1" arrows="1" fold="1" page="0" pageScale="1" pageWidth="850" pageHeight="1100" math="0" shadow="0">
      <root>
        <mxCell id="0" />
        <mxCell id="1" parent="0" />
        <mxCell id="hdwY8uAqlynun0E91TMd-9" value="" style="rounded=0;whiteSpace=wrap;html=1;dashed=1;" parent="1" vertex="1">
          <mxGeometry x="5583" y="1474" width="674" height="245.05" as="geometry" />
        </mxCell>
        <mxCell id="hdwY8uAqlynun0E91TMd-7" value="" style="rounded=0;whiteSpace=wrap;html=1;dashed=1;" parent="1" vertex="1">
          <mxGeometry x="5102" y="1183" width="428" height="596" as="geometry" />
        </mxCell>
        <mxCell id="i1AqGhLAEsl7RgXJ8fc_-106" value="" style="html=1;whiteSpace=wrap;fillColor=#dae8fc;dashed=1;strokeColor=#6c8ebf;" parent="1" vertex="1">
          <mxGeometry x="5390" y="200" width="990" height="540" as="geometry" />
        </mxCell>
        <mxCell id="i1AqGhLAEsl7RgXJ8fc_-108" value="" style="rounded=0;whiteSpace=wrap;html=1;fillColor=#f5f5f5;dashed=1;fontColor=#333333;strokeColor=#666666;" parent="1" vertex="1">
          <mxGeometry x="5060" y="22.5" width="300" height="517.5" as="geometry" />
        </mxCell>
        <mxCell id="LGfuTEwCRZhwQVEG0GSM-27" value="&lt;div&gt;&lt;br&gt;&lt;/div&gt;&lt;div&gt;&lt;br&gt;&lt;/div&gt;&lt;div&gt;&lt;br&gt;&lt;/div&gt;&lt;div&gt;&lt;br&gt;&lt;/div&gt;&lt;div&gt;&lt;br&gt;&lt;/div&gt;&lt;div&gt;&lt;br&gt;&lt;/div&gt;&lt;div&gt;WebUI Simulator&lt;/div&gt;" style="html=1;whiteSpace=wrap;fillColor=#fff2cc;strokeColor=#d6b656;" parent="1" vertex="1">
          <mxGeometry x="3587" y="714" width="225" height="100" as="geometry" />
        </mxCell>
        <mxCell id="z2xaD7FAKLGy1QCzAx4l-20" value="Disable CWMP" style="shape=umlFrame;whiteSpace=wrap;html=1;pointerEvents=0;fillColor=#f8cecc;strokeColor=#b85450;" parent="1" vertex="1">
          <mxGeometry x="271" y="500" width="560" height="130" as="geometry" />
        </mxCell>
        <mxCell id="z2xaD7FAKLGy1QCzAx4l-18" value="Enable CWMP" style="shape=umlFrame;whiteSpace=wrap;html=1;pointerEvents=0;fillColor=#d5e8d4;strokeColor=#82b366;" parent="1" vertex="1">
          <mxGeometry x="271" y="380" width="560" height="110" as="geometry" />
        </mxCell>
        <mxCell id="z2xaD7FAKLGy1QCzAx4l-46" value="actively send&lt;br&gt;Inform" style="shape=umlFrame;whiteSpace=wrap;html=1;pointerEvents=0;width=80;height=30;fillColor=#f5f5f5;fontColor=#333333;strokeColor=#666666;" parent="1" vertex="1">
          <mxGeometry x="1905.5" y="244" width="794.5" height="570" as="geometry" />
        </mxCell>
        <mxCell id="z2xaD7FAKLGy1QCzAx4l-15" value="loop" style="shape=umlFrame;whiteSpace=wrap;html=1;pointerEvents=0;width=50;height=20;fillColor=#f5f5f5;fontColor=#333333;strokeColor=#666666;" parent="1" vertex="1">
          <mxGeometry x="501" y="420" width="310" height="60" as="geometry" />
        </mxCell>
        <mxCell id="9g7T9j7MAoSJXBejlpkE-58" value="" style="rounded=0;whiteSpace=wrap;html=1;strokeColor=#FF3333;strokeWidth=4;" parent="1" vertex="1">
          <mxGeometry x="230" y="1772.5" width="760" height="420" as="geometry" />
        </mxCell>
        <mxCell id="9g7T9j7MAoSJXBejlpkE-55" value="" style="rounded=1;whiteSpace=wrap;html=1;dashed=1;strokeWidth=2;" parent="1" vertex="1">
          <mxGeometry x="540" y="1272.5" width="530" height="430" as="geometry" />
        </mxCell>
        <mxCell id="9g7T9j7MAoSJXBejlpkE-24" value="" style="rounded=1;whiteSpace=wrap;html=1;fillColor=#d5e8d4;strokeColor=#82b366;" parent="1" vertex="1">
          <mxGeometry x="256" y="1796" width="210" height="65.5" as="geometry" />
        </mxCell>
        <mxCell id="9g7T9j7MAoSJXBejlpkE-26" value="" style="rounded=1;whiteSpace=wrap;html=1;fillColor=#d5e8d4;strokeColor=#82b366;" parent="1" vertex="1">
          <mxGeometry x="546" y="1796" width="411" height="350" as="geometry" />
        </mxCell>
        <mxCell id="9g7T9j7MAoSJXBejlpkE-27" value="" style="rounded=1;whiteSpace=wrap;html=1;fillColor=#d5e8d4;strokeColor=#82b366;" parent="1" vertex="1">
          <mxGeometry x="1038" y="1988.5" width="210" height="100" as="geometry" />
        </mxCell>
        <mxCell id="9g7T9j7MAoSJXBejlpkE-20" value="" style="rounded=0;whiteSpace=wrap;html=1;strokeColor=#FF3333;strokeWidth=4;" parent="1" vertex="1">
          <mxGeometry x="243" y="1281.5" width="250" height="415" as="geometry" />
        </mxCell>
        <mxCell id="dyV9W-r_03pvVqOs8cW6-160" value="" style="rounded=1;whiteSpace=wrap;html=1;fillColor=#d5e8d4;strokeColor=#82b366;" parent="1" vertex="1">
          <mxGeometry x="2140" y="1322.5" width="580" height="310" as="geometry" />
        </mxCell>
        <mxCell id="dyV9W-r_03pvVqOs8cW6-150" value="" style="rounded=1;whiteSpace=wrap;html=1;fillColor=#d5e8d4;strokeColor=#82b366;" parent="1" vertex="1">
          <mxGeometry x="1770" y="1322.5" width="180" height="310" as="geometry" />
        </mxCell>
        <mxCell id="dyV9W-r_03pvVqOs8cW6-1" value="Front-end" style="shape=umlLifeline;perimeter=lifelinePerimeter;whiteSpace=wrap;html=1;container=1;dropTarget=0;collapsible=0;recursiveResize=0;outlineConnect=0;portConstraint=eastwest;newEdgeStyle={&quot;curved&quot;:0,&quot;rounded&quot;:0};fillColor=#dae8fc;strokeColor=#6c8ebf;" parent="1" vertex="1">
          <mxGeometry x="95" y="130" width="100" height="710" as="geometry" />
        </mxCell>
        <mxCell id="dyV9W-r_03pvVqOs8cW6-7" value="" style="html=1;points=[[0,0,0,0,5],[0,1,0,0,-5],[1,0,0,0,5],[1,1,0,0,-5]];perimeter=orthogonalPerimeter;outlineConnect=0;targetShapes=umlLifeline;portConstraint=eastwest;newEdgeStyle={&quot;curved&quot;:0,&quot;rounded&quot;:0};fillColor=#ffe6cc;strokeColor=#d79b00;" parent="dyV9W-r_03pvVqOs8cW6-1" vertex="1">
          <mxGeometry x="45" y="60" width="10" height="640" as="geometry" />
        </mxCell>
        <mxCell id="sSDNLOhi34IHWkg_GrEN-30" value="Alert error" style="edgeStyle=orthogonalEdgeStyle;rounded=0;orthogonalLoop=1;jettySize=auto;html=1;curved=0;strokeWidth=2;" edge="1" parent="dyV9W-r_03pvVqOs8cW6-1" source="dyV9W-r_03pvVqOs8cW6-7" target="dyV9W-r_03pvVqOs8cW6-7">
          <mxGeometry relative="1" as="geometry">
            <mxPoint x="42" y="544" as="sourcePoint" />
            <mxPoint x="42" y="604" as="targetPoint" />
            <Array as="points">
              <mxPoint x="2" y="560" />
              <mxPoint x="2" y="590" />
            </Array>
            <mxPoint as="offset" />
          </mxGeometry>
        </mxCell>
        <mxCell id="sSDNLOhi34IHWkg_GrEN-31" value="Store &amp;amp;&lt;div&gt;fill data&lt;/div&gt;" style="edgeStyle=orthogonalEdgeStyle;rounded=0;orthogonalLoop=1;jettySize=auto;html=1;curved=0;strokeWidth=2;" edge="1" parent="dyV9W-r_03pvVqOs8cW6-1" source="dyV9W-r_03pvVqOs8cW6-7" target="dyV9W-r_03pvVqOs8cW6-7">
          <mxGeometry relative="1" as="geometry">
            <mxPoint x="42" y="639" as="sourcePoint" />
            <mxPoint x="42" y="699" as="targetPoint" />
            <Array as="points">
              <mxPoint y="630" />
              <mxPoint y="670" />
            </Array>
            <mxPoint as="offset" />
          </mxGeometry>
        </mxCell>
        <mxCell id="sSDNLOhi34IHWkg_GrEN-34" value="Wait till&lt;div&gt;server response&lt;/div&gt;" style="endArrow=classic;html=1;rounded=0;strokeWidth=2;dashed=1;" edge="1" parent="dyV9W-r_03pvVqOs8cW6-1" source="dyV9W-r_03pvVqOs8cW6-7" target="dyV9W-r_03pvVqOs8cW6-7">
          <mxGeometry width="50" height="50" relative="1" as="geometry">
            <mxPoint x="-25" y="300" as="sourcePoint" />
            <mxPoint x="25" y="250" as="targetPoint" />
            <Array as="points">
              <mxPoint x="-15" y="90" />
              <mxPoint x="-15" y="300" />
              <mxPoint x="-15" y="520" />
            </Array>
          </mxGeometry>
        </mxCell>
        <mxCell id="dyV9W-r_03pvVqOs8cW6-2" value="Web-Backend" style="shape=umlLifeline;perimeter=lifelinePerimeter;whiteSpace=wrap;html=1;container=1;dropTarget=0;collapsible=0;recursiveResize=0;outlineConnect=0;portConstraint=eastwest;newEdgeStyle={&quot;curved&quot;:0,&quot;rounded&quot;:0};fillColor=#dae8fc;strokeColor=#6c8ebf;" parent="1" vertex="1">
          <mxGeometry x="315" y="130" width="100" height="710" as="geometry" />
        </mxCell>
        <mxCell id="dyV9W-r_03pvVqOs8cW6-8" value="" style="html=1;points=[[0,0,0,0,5],[0,1,0,0,-5],[1,0,0,0,5],[1,1,0,0,-5]];perimeter=orthogonalPerimeter;outlineConnect=0;targetShapes=umlLifeline;portConstraint=eastwest;newEdgeStyle={&quot;curved&quot;:0,&quot;rounded&quot;:0};fillColor=#ffe6cc;strokeColor=#d79b00;" parent="dyV9W-r_03pvVqOs8cW6-2" vertex="1">
          <mxGeometry x="45" y="60" width="10" height="640" as="geometry" />
        </mxCell>
        <mxCell id="dyV9W-r_03pvVqOs8cW6-13" value="Parse param value" style="edgeStyle=orthogonalEdgeStyle;rounded=0;orthogonalLoop=1;jettySize=auto;html=1;curved=0;strokeWidth=2;" parent="dyV9W-r_03pvVqOs8cW6-2" edge="1" source="dyV9W-r_03pvVqOs8cW6-8">
          <mxGeometry relative="1" as="geometry">
            <Array as="points">
              <mxPoint x="105" y="90" />
              <mxPoint x="105" y="130" />
              <mxPoint x="55" y="130" />
            </Array>
            <mxPoint x="55" y="130" as="sourcePoint" />
            <mxPoint x="55" y="130" as="targetPoint" />
          </mxGeometry>
        </mxCell>
        <mxCell id="dyV9W-r_03pvVqOs8cW6-3" value="genieacs-sim&lt;br&gt;module" style="shape=umlLifeline;perimeter=lifelinePerimeter;whiteSpace=wrap;html=1;container=1;dropTarget=0;collapsible=0;recursiveResize=0;outlineConnect=0;portConstraint=eastwest;newEdgeStyle={&quot;curved&quot;:0,&quot;rounded&quot;:0};fillColor=#dae8fc;strokeColor=#6c8ebf;" parent="1" vertex="1">
          <mxGeometry x="515" y="130" width="100" height="710" as="geometry" />
        </mxCell>
        <mxCell id="dyV9W-r_03pvVqOs8cW6-9" value="" style="html=1;points=[[0,0,0,0,5],[0,1,0,0,-5],[1,0,0,0,5],[1,1,0,0,-5]];perimeter=orthogonalPerimeter;outlineConnect=0;targetShapes=umlLifeline;portConstraint=eastwest;newEdgeStyle={&quot;curved&quot;:0,&quot;rounded&quot;:0};fillColor=#ffe6cc;strokeColor=#d79b00;" parent="dyV9W-r_03pvVqOs8cW6-3" vertex="1">
          <mxGeometry x="45" y="60" width="10" height="400" as="geometry" />
        </mxCell>
        <mxCell id="z2xaD7FAKLGy1QCzAx4l-23" value="" style="html=1;points=[[0,0,0,0,5],[0,1,0,0,-5],[1,0,0,0,5],[1,1,0,0,-5]];perimeter=orthogonalPerimeter;outlineConnect=0;targetShapes=umlLifeline;portConstraint=eastwest;newEdgeStyle={&quot;curved&quot;:0,&quot;rounded&quot;:0};" parent="dyV9W-r_03pvVqOs8cW6-3" vertex="1">
          <mxGeometry x="50" y="420" width="10" height="30" as="geometry" />
        </mxCell>
        <mxCell id="z2xaD7FAKLGy1QCzAx4l-24" value="Close connection" style="html=1;align=left;spacingLeft=2;endArrow=block;rounded=0;edgeStyle=orthogonalEdgeStyle;curved=0;rounded=0;strokeWidth=2;" parent="dyV9W-r_03pvVqOs8cW6-3" target="z2xaD7FAKLGy1QCzAx4l-23" edge="1" source="dyV9W-r_03pvVqOs8cW6-9">
          <mxGeometry relative="1" as="geometry">
            <mxPoint x="56.00000000000023" y="410" as="sourcePoint" />
            <Array as="points">
              <mxPoint x="86" y="400" />
              <mxPoint x="86" y="430" />
            </Array>
          </mxGeometry>
        </mxCell>
        <mxCell id="z2xaD7FAKLGy1QCzAx4l-25" value="" style="shape=umlDestroy;whiteSpace=wrap;html=1;strokeWidth=3;targetShapes=umlLifeline;" parent="dyV9W-r_03pvVqOs8cW6-3" vertex="1">
          <mxGeometry x="35" y="460" width="30" height="30" as="geometry" />
        </mxCell>
        <mxCell id="dyV9W-r_03pvVqOs8cW6-4" value="ACS Server" style="shape=umlLifeline;perimeter=lifelinePerimeter;whiteSpace=wrap;html=1;container=1;dropTarget=0;collapsible=0;recursiveResize=0;outlineConnect=0;portConstraint=eastwest;newEdgeStyle={&quot;curved&quot;:0,&quot;rounded&quot;:0};fillColor=#dae8fc;strokeColor=#6c8ebf;" parent="1" vertex="1">
          <mxGeometry x="735" y="130" width="100" height="710" as="geometry" />
        </mxCell>
        <mxCell id="dyV9W-r_03pvVqOs8cW6-10" value="" style="html=1;points=[[0,0,0,0,5],[0,1,0,0,-5],[1,0,0,0,5],[1,1,0,0,-5]];perimeter=orthogonalPerimeter;outlineConnect=0;targetShapes=umlLifeline;portConstraint=eastwest;newEdgeStyle={&quot;curved&quot;:0,&quot;rounded&quot;:0};fillColor=#ffe6cc;strokeColor=#d79b00;" parent="dyV9W-r_03pvVqOs8cW6-4" vertex="1">
          <mxGeometry x="45" y="60" width="10" height="640" as="geometry" />
        </mxCell>
        <mxCell id="dyV9W-r_03pvVqOs8cW6-12" value="HTTP POST request" style="edgeStyle=orthogonalEdgeStyle;rounded=0;orthogonalLoop=1;jettySize=auto;html=1;curved=0;strokeWidth=2;" parent="1" source="dyV9W-r_03pvVqOs8cW6-7" target="dyV9W-r_03pvVqOs8cW6-8" edge="1">
          <mxGeometry x="0.0008" relative="1" as="geometry">
            <Array as="points">
              <mxPoint x="261" y="217" />
              <mxPoint x="261" y="217" />
            </Array>
            <mxPoint as="offset" />
          </mxGeometry>
        </mxCell>
        <mxCell id="dyV9W-r_03pvVqOs8cW6-16" value="S" style="ellipse;html=1;shape=startState;fillColor=#000000;strokeColor=#ff0000;" parent="1" vertex="1">
          <mxGeometry x="1640" y="1282.5" width="30" height="30" as="geometry" />
        </mxCell>
        <mxCell id="dyV9W-r_03pvVqOs8cW6-17" value="" style="edgeStyle=orthogonalEdgeStyle;html=1;verticalAlign=bottom;endArrow=open;endSize=8;strokeColor=#ff0000;rounded=0;entryX=0.5;entryY=0;entryDx=0;entryDy=0;" parent="1" source="dyV9W-r_03pvVqOs8cW6-16" target="dyV9W-r_03pvVqOs8cW6-19" edge="1">
          <mxGeometry relative="1" as="geometry">
            <mxPoint x="1740" y="1292.5" as="targetPoint" />
            <Array as="points" />
          </mxGeometry>
        </mxCell>
        <mxCell id="dyV9W-r_03pvVqOs8cW6-166" style="edgeStyle=orthogonalEdgeStyle;rounded=0;orthogonalLoop=1;jettySize=auto;html=1;entryX=0;entryY=0.5;entryDx=0;entryDy=0;startArrow=none;startFill=0;" parent="1" source="dyV9W-r_03pvVqOs8cW6-19" target="dyV9W-r_03pvVqOs8cW6-163" edge="1">
          <mxGeometry relative="1" as="geometry" />
        </mxCell>
        <mxCell id="dyV9W-r_03pvVqOs8cW6-19" value="Request" style="html=1;whiteSpace=wrap;" parent="1" vertex="1">
          <mxGeometry x="1600" y="1387.5" width="110" height="50" as="geometry" />
        </mxCell>
        <mxCell id="dyV9W-r_03pvVqOs8cW6-169" style="edgeStyle=orthogonalEdgeStyle;rounded=0;orthogonalLoop=1;jettySize=auto;html=1;startArrow=classic;startFill=1;" parent="1" source="dyV9W-r_03pvVqOs8cW6-20" target="dyV9W-r_03pvVqOs8cW6-90" edge="1">
          <mxGeometry relative="1" as="geometry">
            <Array as="points">
              <mxPoint x="1930" y="1537.5" />
              <mxPoint x="1930" y="1537.5" />
            </Array>
          </mxGeometry>
        </mxCell>
        <mxCell id="z2xaD7FAKLGy1QCzAx4l-5" value="Response" style="edgeStyle=orthogonalEdgeStyle;rounded=0;orthogonalLoop=1;jettySize=auto;html=1;entryX=0.5;entryY=1;entryDx=0;entryDy=0;dashed=1;" parent="1" source="dyV9W-r_03pvVqOs8cW6-20" target="dyV9W-r_03pvVqOs8cW6-19" edge="1">
          <mxGeometry relative="1" as="geometry" />
        </mxCell>
        <mxCell id="dyV9W-r_03pvVqOs8cW6-20" value="Parse data" style="html=1;whiteSpace=wrap;" parent="1" vertex="1">
          <mxGeometry x="1802.5" y="1512.5" width="110" height="50" as="geometry" />
        </mxCell>
        <mxCell id="dyV9W-r_03pvVqOs8cW6-171" style="edgeStyle=orthogonalEdgeStyle;rounded=0;orthogonalLoop=1;jettySize=auto;html=1;entryX=0.5;entryY=0;entryDx=0;entryDy=0;" parent="1" source="dyV9W-r_03pvVqOs8cW6-21" target="dyV9W-r_03pvVqOs8cW6-156" edge="1">
          <mxGeometry relative="1" as="geometry" />
        </mxCell>
        <mxCell id="dyV9W-r_03pvVqOs8cW6-21" value="Parse data" style="html=1;whiteSpace=wrap;" parent="1" vertex="1">
          <mxGeometry x="2185" y="1422.5" width="110" height="50" as="geometry" />
        </mxCell>
        <mxCell id="dyV9W-r_03pvVqOs8cW6-22" value="socket.end()" style="html=1;whiteSpace=wrap;" parent="1" vertex="1">
          <mxGeometry x="2570" y="1452.5" width="110" height="50" as="geometry" />
        </mxCell>
        <mxCell id="dyV9W-r_03pvVqOs8cW6-23" value="startSession()" style="html=1;whiteSpace=wrap;" parent="1" vertex="1">
          <mxGeometry x="2570" y="1372.5" width="110" height="50" as="geometry" />
        </mxCell>
        <mxCell id="dyV9W-r_03pvVqOs8cW6-180" style="edgeStyle=orthogonalEdgeStyle;rounded=0;orthogonalLoop=1;jettySize=auto;html=1;curved=0;entryX=0;entryY=0.5;entryDx=0;entryDy=0;" parent="1" source="dyV9W-r_03pvVqOs8cW6-32" target="dyV9W-r_03pvVqOs8cW6-176" edge="1">
          <mxGeometry relative="1" as="geometry">
            <Array as="points">
              <mxPoint x="2385" y="1442.5" />
              <mxPoint x="2385" y="1397.5" />
            </Array>
          </mxGeometry>
        </mxCell>
        <mxCell id="dyV9W-r_03pvVqOs8cW6-181" style="edgeStyle=orthogonalEdgeStyle;rounded=0;orthogonalLoop=1;jettySize=auto;html=1;curved=0;entryX=0;entryY=0.5;entryDx=0;entryDy=0;" parent="1" source="dyV9W-r_03pvVqOs8cW6-32" target="dyV9W-r_03pvVqOs8cW6-177" edge="1">
          <mxGeometry relative="1" as="geometry" />
        </mxCell>
        <mxCell id="dyV9W-r_03pvVqOs8cW6-182" style="edgeStyle=orthogonalEdgeStyle;rounded=0;orthogonalLoop=1;jettySize=auto;html=1;curved=0;entryX=0;entryY=0.5;entryDx=0;entryDy=0;" parent="1" source="dyV9W-r_03pvVqOs8cW6-32" target="dyV9W-r_03pvVqOs8cW6-178" edge="1">
          <mxGeometry relative="1" as="geometry">
            <Array as="points">
              <mxPoint x="2380" y="1512.5" />
              <mxPoint x="2380" y="1557.5" />
            </Array>
          </mxGeometry>
        </mxCell>
        <mxCell id="dyV9W-r_03pvVqOs8cW6-32" value="" style="html=1;points=[[0,0,0,0,5],[0,1,0,0,-5],[1,0,0,0,5],[1,1,0,0,-5]];perimeter=orthogonalPerimeter;outlineConnect=0;targetShapes=umlLifeline;portConstraint=eastwest;newEdgeStyle={&quot;curved&quot;:0,&quot;rounded&quot;:0};fillColor=#000000;" parent="1" vertex="1">
          <mxGeometry x="2340" y="1412.5" width="10" height="130" as="geometry" />
        </mxCell>
        <mxCell id="dyV9W-r_03pvVqOs8cW6-35" value="startsession()" style="html=1;whiteSpace=wrap;" parent="1" vertex="1">
          <mxGeometry x="2570" y="1532.5" width="110" height="50" as="geometry" />
        </mxCell>
        <mxCell id="dyV9W-r_03pvVqOs8cW6-113" style="edgeStyle=orthogonalEdgeStyle;rounded=0;orthogonalLoop=1;jettySize=auto;html=1;entryX=0.5;entryY=0;entryDx=0;entryDy=0;strokeWidth=2;" parent="1" source="dyV9W-r_03pvVqOs8cW6-43" target="dyV9W-r_03pvVqOs8cW6-44" edge="1">
          <mxGeometry relative="1" as="geometry" />
        </mxCell>
        <mxCell id="dyV9W-r_03pvVqOs8cW6-43" value="startSession()" style="html=1;whiteSpace=wrap;" parent="1" vertex="1">
          <mxGeometry x="2685" y="1717.5" width="110" height="50" as="geometry" />
        </mxCell>
        <mxCell id="dyV9W-r_03pvVqOs8cW6-114" style="edgeStyle=orthogonalEdgeStyle;rounded=0;orthogonalLoop=1;jettySize=auto;html=1;entryX=0.5;entryY=0;entryDx=0;entryDy=0;strokeWidth=2;" parent="1" source="dyV9W-r_03pvVqOs8cW6-44" target="dyV9W-r_03pvVqOs8cW6-46" edge="1">
          <mxGeometry relative="1" as="geometry" />
        </mxCell>
        <mxCell id="dyV9W-r_03pvVqOs8cW6-44" value="&lt;ul&gt;&lt;li&gt;nextInformTimeout = nul&lt;/li&gt;&lt;li&gt;pendingInform = false&lt;/li&gt;&lt;li&gt;random requestID&lt;/li&gt;&lt;/ul&gt;" style="html=1;whiteSpace=wrap;align=left;" parent="1" vertex="1">
          <mxGeometry x="2645" y="1797.5" width="190" height="50" as="geometry" />
        </mxCell>
        <mxCell id="dyV9W-r_03pvVqOs8cW6-141" value="" style="edgeStyle=orthogonalEdgeStyle;rounded=0;orthogonalLoop=1;jettySize=auto;html=1;strokeWidth=2;" parent="1" source="dyV9W-r_03pvVqOs8cW6-46" target="dyV9W-r_03pvVqOs8cW6-198" edge="1">
          <mxGeometry relative="1" as="geometry">
            <Array as="points">
              <mxPoint x="2740" y="1967.5" />
              <mxPoint x="2740" y="1967.5" />
            </Array>
          </mxGeometry>
        </mxCell>
        <mxCell id="dyV9W-r_03pvVqOs8cW6-46" value="wrap data &amp;amp; document" style="html=1;whiteSpace=wrap;" parent="1" vertex="1">
          <mxGeometry x="2685" y="1877.5" width="110" height="50" as="geometry" />
        </mxCell>
        <mxCell id="dyV9W-r_03pvVqOs8cW6-209" value="" style="edgeStyle=orthogonalEdgeStyle;rounded=0;orthogonalLoop=1;jettySize=auto;html=1;strokeWidth=2;strokeColor=#00FF80;" parent="1" source="dyV9W-r_03pvVqOs8cW6-48" target="dyV9W-r_03pvVqOs8cW6-208" edge="1">
          <mxGeometry relative="1" as="geometry">
            <Array as="points">
              <mxPoint x="2740" y="2127.5" />
              <mxPoint x="2740" y="2127.5" />
            </Array>
          </mxGeometry>
        </mxCell>
        <mxCell id="dyV9W-r_03pvVqOs8cW6-218" style="edgeStyle=orthogonalEdgeStyle;rounded=0;orthogonalLoop=1;jettySize=auto;html=1;entryX=0;entryY=0.5;entryDx=0;entryDy=0;dashed=1;strokeWidth=2;" parent="1" source="dyV9W-r_03pvVqOs8cW6-48" target="dyV9W-r_03pvVqOs8cW6-62" edge="1">
          <mxGeometry relative="1" as="geometry" />
        </mxCell>
        <mxCell id="dyV9W-r_03pvVqOs8cW6-48" value="sendRequest()&lt;br&gt;POST" style="html=1;whiteSpace=wrap;" parent="1" vertex="1">
          <mxGeometry x="2685" y="2032.5" width="110" height="50" as="geometry" />
        </mxCell>
        <mxCell id="dyV9W-r_03pvVqOs8cW6-142" value="" style="edgeStyle=orthogonalEdgeStyle;rounded=0;orthogonalLoop=1;jettySize=auto;html=1;strokeColor=#000000;strokeWidth=2;" parent="1" source="dyV9W-r_03pvVqOs8cW6-52" target="dyV9W-r_03pvVqOs8cW6-53" edge="1">
          <mxGeometry relative="1" as="geometry" />
        </mxCell>
        <mxCell id="dyV9W-r_03pvVqOs8cW6-52" value="cpeRequest()" style="html=1;whiteSpace=wrap;" parent="1" vertex="1">
          <mxGeometry x="2758.75" y="2222.5" width="110" height="50" as="geometry" />
        </mxCell>
        <mxCell id="dyV9W-r_03pvVqOs8cW6-202" value="N" style="edgeStyle=orthogonalEdgeStyle;rounded=0;orthogonalLoop=1;jettySize=auto;html=1;fontStyle=1;strokeColor=#000000;strokeWidth=2;fontSize=13;" parent="1" source="dyV9W-r_03pvVqOs8cW6-53" target="dyV9W-r_03pvVqOs8cW6-195" edge="1">
          <mxGeometry x="-0.2" y="3" relative="1" as="geometry">
            <mxPoint y="1" as="offset" />
          </mxGeometry>
        </mxCell>
        <mxCell id="dyV9W-r_03pvVqOs8cW6-213" value="Y" style="edgeStyle=orthogonalEdgeStyle;rounded=0;orthogonalLoop=1;jettySize=auto;html=1;fontStyle=1;strokeWidth=2;fillColor=#d80073;strokeColor=#FF3399;fontSize=13;" parent="1" source="dyV9W-r_03pvVqOs8cW6-53" target="dyV9W-r_03pvVqOs8cW6-203" edge="1">
          <mxGeometry relative="1" as="geometry">
            <Array as="points">
              <mxPoint x="2815" y="2417.5" />
            </Array>
          </mxGeometry>
        </mxCell>
        <mxCell id="dyV9W-r_03pvVqOs8cW6-53" value="if pending empty" style="rhombus;whiteSpace=wrap;html=1;" parent="1" vertex="1">
          <mxGeometry x="2752.5" y="2322.5" width="122.5" height="75" as="geometry" />
        </mxCell>
        <mxCell id="dyV9W-r_03pvVqOs8cW6-148" value="Y" style="edgeStyle=orthogonalEdgeStyle;rounded=0;orthogonalLoop=1;jettySize=auto;html=1;entryX=0;entryY=0.5;entryDx=0;entryDy=0;exitX=0;exitY=0.5;exitDx=0;exitDy=0;strokeColor=#FF3399;strokeWidth=2;fontStyle=1;fontSize=13;" parent="1" source="dyV9W-r_03pvVqOs8cW6-58" target="dyV9W-r_03pvVqOs8cW6-43" edge="1">
          <mxGeometry x="-0.451" relative="1" as="geometry">
            <Array as="points">
              <mxPoint x="2455" y="2247.5" />
              <mxPoint x="2455" y="1742.5" />
            </Array>
            <mxPoint y="-1" as="offset" />
          </mxGeometry>
        </mxCell>
        <mxCell id="dyV9W-r_03pvVqOs8cW6-199" value="N" style="edgeStyle=orthogonalEdgeStyle;rounded=0;orthogonalLoop=1;jettySize=auto;html=1;fontSize=13;fontStyle=1;strokeColor=#FF3399;strokeWidth=2;" parent="1" source="dyV9W-r_03pvVqOs8cW6-58" target="dyV9W-r_03pvVqOs8cW6-198" edge="1">
          <mxGeometry x="-0.3777" relative="1" as="geometry">
            <Array as="points">
              <mxPoint x="2525" y="1957.5" />
              <mxPoint x="2705" y="1957.5" />
            </Array>
            <mxPoint as="offset" />
          </mxGeometry>
        </mxCell>
        <mxCell id="dyV9W-r_03pvVqOs8cW6-58" value="xml is null" style="rhombus;whiteSpace=wrap;html=1;" parent="1" vertex="1">
          <mxGeometry x="2485" y="2207.5" width="80" height="80" as="geometry" />
        </mxCell>
        <mxCell id="dyV9W-r_03pvVqOs8cW6-220" value="" style="edgeStyle=orthogonalEdgeStyle;rounded=0;orthogonalLoop=1;jettySize=auto;html=1;strokeWidth=2;dashed=1;" parent="1" source="dyV9W-r_03pvVqOs8cW6-62" target="dyV9W-r_03pvVqOs8cW6-219" edge="1">
          <mxGeometry relative="1" as="geometry" />
        </mxCell>
        <mxCell id="dyV9W-r_03pvVqOs8cW6-62" value="create timout" style="html=1;whiteSpace=wrap;" parent="1" vertex="1">
          <mxGeometry x="2921.25" y="2032.5" width="110" height="50" as="geometry" />
        </mxCell>
        <mxCell id="dyV9W-r_03pvVqOs8cW6-63" value="Establish connection&lt;br&gt;interval inform" style="edgeStyle=orthogonalEdgeStyle;rounded=0;orthogonalLoop=1;jettySize=auto;html=1;curved=0;startArrow=classic;startFill=1;strokeWidth=2;" parent="1" edge="1" target="dyV9W-r_03pvVqOs8cW6-10" source="dyV9W-r_03pvVqOs8cW6-9">
          <mxGeometry x="0.0018" relative="1" as="geometry">
            <Array as="points">
              <mxPoint x="670" y="450" />
              <mxPoint x="670" y="450" />
            </Array>
            <mxPoint as="offset" />
            <mxPoint x="571" y="460" as="sourcePoint" />
            <mxPoint x="781" y="460" as="targetPoint" />
          </mxGeometry>
        </mxCell>
        <mxCell id="dyV9W-r_03pvVqOs8cW6-172" style="edgeStyle=orthogonalEdgeStyle;rounded=0;orthogonalLoop=1;jettySize=auto;html=1;entryX=0;entryY=0.5;entryDx=0;entryDy=0;startArrow=classic;startFill=1;" parent="1" source="dyV9W-r_03pvVqOs8cW6-90" target="dyV9W-r_03pvVqOs8cW6-21" edge="1">
          <mxGeometry relative="1" as="geometry">
            <Array as="points">
              <mxPoint x="2120" y="1542.5" />
              <mxPoint x="2120" y="1447.5" />
            </Array>
          </mxGeometry>
        </mxCell>
        <mxCell id="dyV9W-r_03pvVqOs8cW6-90" value="data_model.csv" style="shape=note;size=20;whiteSpace=wrap;html=1;" parent="1" vertex="1">
          <mxGeometry x="2000" y="1482.5" width="90" height="110" as="geometry" />
        </mxCell>
        <mxCell id="dyV9W-r_03pvVqOs8cW6-149" value="" style="edgeStyle=orthogonalEdgeStyle;rounded=0;orthogonalLoop=1;jettySize=auto;html=1;fillColor=#d80073;strokeColor=#FF3399;strokeWidth=2;" parent="1" source="dyV9W-r_03pvVqOs8cW6-146" target="dyV9W-r_03pvVqOs8cW6-58" edge="1">
          <mxGeometry relative="1" as="geometry" />
        </mxCell>
        <mxCell id="dyV9W-r_03pvVqOs8cW6-146" value="handleMethod" style="html=1;whiteSpace=wrap;" parent="1" vertex="1">
          <mxGeometry x="2620" y="2222.5" width="110" height="50" as="geometry" />
        </mxCell>
        <mxCell id="dyV9W-r_03pvVqOs8cW6-151" value="&lt;span style=&quot;font-size: 15px;&quot;&gt;Web-Backend&lt;/span&gt;" style="text;html=1;align=center;verticalAlign=middle;whiteSpace=wrap;rounded=0;fontSize=15;fontStyle=1" parent="1" vertex="1">
          <mxGeometry x="1802.5" y="1322.5" width="115" height="30" as="geometry" />
        </mxCell>
        <mxCell id="dyV9W-r_03pvVqOs8cW6-179" style="edgeStyle=orthogonalEdgeStyle;rounded=0;orthogonalLoop=1;jettySize=auto;html=1;" parent="1" source="dyV9W-r_03pvVqOs8cW6-156" target="dyV9W-r_03pvVqOs8cW6-32" edge="1">
          <mxGeometry relative="1" as="geometry" />
        </mxCell>
        <mxCell id="dyV9W-r_03pvVqOs8cW6-156" value="Create dummy socket" style="html=1;whiteSpace=wrap;" parent="1" vertex="1">
          <mxGeometry x="2185" y="1505" width="110" height="50" as="geometry" />
        </mxCell>
        <mxCell id="dyV9W-r_03pvVqOs8cW6-161" value="&lt;span style=&quot;font-size: 15px;&quot;&gt;genieacs-sim&lt;/span&gt;" style="text;html=1;align=center;verticalAlign=middle;whiteSpace=wrap;rounded=0;fontSize=15;fontStyle=1" parent="1" vertex="1">
          <mxGeometry x="2232.5" y="1322.5" width="122.5" height="30" as="geometry" />
        </mxCell>
        <mxCell id="dyV9W-r_03pvVqOs8cW6-165" style="edgeStyle=orthogonalEdgeStyle;rounded=0;orthogonalLoop=1;jettySize=auto;html=1;entryX=0.5;entryY=0;entryDx=0;entryDy=0;" parent="1" source="dyV9W-r_03pvVqOs8cW6-163" target="dyV9W-r_03pvVqOs8cW6-20" edge="1">
          <mxGeometry relative="1" as="geometry" />
        </mxCell>
        <mxCell id="dyV9W-r_03pvVqOs8cW6-163" value="Parse request" style="rounded=0;whiteSpace=wrap;html=1;" parent="1" vertex="1">
          <mxGeometry x="1802.5" y="1387.5" width="110" height="50" as="geometry" />
        </mxCell>
        <mxCell id="dyV9W-r_03pvVqOs8cW6-183" value="" style="edgeStyle=orthogonalEdgeStyle;rounded=0;orthogonalLoop=1;jettySize=auto;html=1;" parent="1" source="dyV9W-r_03pvVqOs8cW6-176" target="dyV9W-r_03pvVqOs8cW6-23" edge="1">
          <mxGeometry relative="1" as="geometry" />
        </mxCell>
        <mxCell id="dyV9W-r_03pvVqOs8cW6-176" value="on error" style="rounded=0;whiteSpace=wrap;html=1;" parent="1" vertex="1">
          <mxGeometry x="2420" y="1372.5" width="110" height="50" as="geometry" />
        </mxCell>
        <mxCell id="dyV9W-r_03pvVqOs8cW6-184" value="" style="edgeStyle=orthogonalEdgeStyle;rounded=0;orthogonalLoop=1;jettySize=auto;html=1;" parent="1" source="dyV9W-r_03pvVqOs8cW6-177" target="dyV9W-r_03pvVqOs8cW6-22" edge="1">
          <mxGeometry relative="1" as="geometry" />
        </mxCell>
        <mxCell id="dyV9W-r_03pvVqOs8cW6-177" value="on connect" style="rounded=0;whiteSpace=wrap;html=1;" parent="1" vertex="1">
          <mxGeometry x="2420" y="1452.5" width="110" height="50" as="geometry" />
        </mxCell>
        <mxCell id="dyV9W-r_03pvVqOs8cW6-185" value="" style="edgeStyle=orthogonalEdgeStyle;rounded=0;orthogonalLoop=1;jettySize=auto;html=1;" parent="1" source="dyV9W-r_03pvVqOs8cW6-178" target="dyV9W-r_03pvVqOs8cW6-35" edge="1">
          <mxGeometry relative="1" as="geometry" />
        </mxCell>
        <mxCell id="dyV9W-r_03pvVqOs8cW6-178" value="on close" style="rounded=0;whiteSpace=wrap;html=1;" parent="1" vertex="1">
          <mxGeometry x="2420" y="1532.5" width="110" height="50" as="geometry" />
        </mxCell>
        <mxCell id="dyV9W-r_03pvVqOs8cW6-214" style="edgeStyle=orthogonalEdgeStyle;rounded=0;orthogonalLoop=1;jettySize=auto;html=1;" parent="1" source="dyV9W-r_03pvVqOs8cW6-195" target="dyV9W-r_03pvVqOs8cW6-203" edge="1">
          <mxGeometry relative="1" as="geometry">
            <Array as="points">
              <mxPoint x="3055" y="2360.5" />
              <mxPoint x="3055" y="2360.5" />
            </Array>
          </mxGeometry>
        </mxCell>
        <mxCell id="dyV9W-r_03pvVqOs8cW6-195" value="create new requestID" style="html=1;whiteSpace=wrap;" parent="1" vertex="1">
          <mxGeometry x="2925" y="2335" width="90" height="50" as="geometry" />
        </mxCell>
        <mxCell id="dyV9W-r_03pvVqOs8cW6-200" style="edgeStyle=orthogonalEdgeStyle;rounded=0;orthogonalLoop=1;jettySize=auto;html=1;curved=0;entryX=0.5;entryY=0;entryDx=0;entryDy=0;strokeColor=#00FF80;strokeWidth=2;" parent="1" source="dyV9W-r_03pvVqOs8cW6-198" target="dyV9W-r_03pvVqOs8cW6-48" edge="1">
          <mxGeometry relative="1" as="geometry">
            <Array as="points">
              <mxPoint x="2740" y="1997.5" />
              <mxPoint x="2740" y="1997.5" />
            </Array>
          </mxGeometry>
        </mxCell>
        <mxCell id="dyV9W-r_03pvVqOs8cW6-198" value="" style="html=1;points=[[0,0,0,0,5],[0,1,0,0,-5],[1,0,0,0,5],[1,1,0,0,-5]];perimeter=orthogonalPerimeter;outlineConnect=0;targetShapes=umlLifeline;portConstraint=eastwest;newEdgeStyle={&quot;curved&quot;:0,&quot;rounded&quot;:0};direction=south;fillColor=#000000;" parent="1" vertex="1">
          <mxGeometry x="2675" y="1977.5" width="130" height="10" as="geometry" />
        </mxCell>
        <mxCell id="dyV9W-r_03pvVqOs8cW6-207" style="edgeStyle=orthogonalEdgeStyle;rounded=0;orthogonalLoop=1;jettySize=auto;html=1;curved=0;fillColor=#ffcccc;strokeColor=#00FF80;strokeWidth=2;" parent="1" source="dyV9W-r_03pvVqOs8cW6-203" target="dyV9W-r_03pvVqOs8cW6-198" edge="1">
          <mxGeometry relative="1" as="geometry">
            <Array as="points">
              <mxPoint x="3085" y="2387.5" />
              <mxPoint x="3085" y="1957.5" />
              <mxPoint x="2775" y="1957.5" />
            </Array>
          </mxGeometry>
        </mxCell>
        <mxCell id="dyV9W-r_03pvVqOs8cW6-203" value="" style="html=1;points=[[0,0,0,0,5],[0,1,0,0,-5],[1,0,0,0,5],[1,1,0,0,-5]];perimeter=orthogonalPerimeter;outlineConnect=0;targetShapes=umlLifeline;portConstraint=eastwest;newEdgeStyle={&quot;curved&quot;:0,&quot;rounded&quot;:0};direction=west;fillColor=#000000;" parent="1" vertex="1">
          <mxGeometry x="3053.75" y="2347.5" width="10" height="80" as="geometry" />
        </mxCell>
        <mxCell id="dyV9W-r_03pvVqOs8cW6-210" style="edgeStyle=orthogonalEdgeStyle;rounded=0;orthogonalLoop=1;jettySize=auto;html=1;curved=0;entryX=0.5;entryY=0;entryDx=0;entryDy=0;fillColor=#d80073;strokeColor=#FF3399;strokeWidth=2;" parent="1" source="dyV9W-r_03pvVqOs8cW6-208" target="dyV9W-r_03pvVqOs8cW6-146" edge="1">
          <mxGeometry relative="1" as="geometry">
            <Array as="points">
              <mxPoint x="2715" y="2187.5" />
              <mxPoint x="2675" y="2187.5" />
            </Array>
          </mxGeometry>
        </mxCell>
        <mxCell id="dyV9W-r_03pvVqOs8cW6-211" style="edgeStyle=orthogonalEdgeStyle;rounded=0;orthogonalLoop=1;jettySize=auto;html=1;curved=0;entryX=0.5;entryY=0;entryDx=0;entryDy=0;strokeColor=#000000;strokeWidth=2;" parent="1" source="dyV9W-r_03pvVqOs8cW6-208" target="dyV9W-r_03pvVqOs8cW6-52" edge="1">
          <mxGeometry relative="1" as="geometry">
            <Array as="points">
              <mxPoint x="2765" y="2187.5" />
              <mxPoint x="2814" y="2187.5" />
              <mxPoint x="2814" y="2222.5" />
            </Array>
          </mxGeometry>
        </mxCell>
        <mxCell id="dyV9W-r_03pvVqOs8cW6-208" value="" style="html=1;points=[[0,0,0,0,5],[0,1,0,0,-5],[1,0,0,0,5],[1,1,0,0,-5]];perimeter=orthogonalPerimeter;outlineConnect=0;targetShapes=umlLifeline;portConstraint=eastwest;newEdgeStyle={&quot;curved&quot;:0,&quot;rounded&quot;:0};direction=south;fillColor=#000000;" parent="1" vertex="1">
          <mxGeometry x="2675" y="2127.5" width="130" height="10" as="geometry" />
        </mxCell>
        <mxCell id="dyV9W-r_03pvVqOs8cW6-215" value="" style="ellipse;html=1;shape=endState;fillColor=#000000;strokeColor=#ff0000;" parent="1" vertex="1">
          <mxGeometry x="2961.25" y="2232.5" width="30" height="30" as="geometry" />
        </mxCell>
        <mxCell id="dyV9W-r_03pvVqOs8cW6-221" value="" style="edgeStyle=orthogonalEdgeStyle;rounded=0;orthogonalLoop=1;jettySize=auto;html=1;strokeWidth=2;dashed=1;" parent="1" source="dyV9W-r_03pvVqOs8cW6-219" target="dyV9W-r_03pvVqOs8cW6-215" edge="1">
          <mxGeometry relative="1" as="geometry" />
        </mxCell>
        <mxCell id="dyV9W-r_03pvVqOs8cW6-219" value="Timeout end&lt;br&gt;without response" style="rhombus;whiteSpace=wrap;html=1;" parent="1" vertex="1">
          <mxGeometry x="2905" y="2112.5" width="142.5" height="80" as="geometry" />
        </mxCell>
        <mxCell id="dyV9W-r_03pvVqOs8cW6-222" value="" style="rounded=1;whiteSpace=wrap;html=1;fillColor=#d5e8d4;strokeColor=#82b366;" parent="1" vertex="1">
          <mxGeometry x="2811.25" y="1432.5" width="180" height="90" as="geometry" />
        </mxCell>
        <mxCell id="dyV9W-r_03pvVqOs8cW6-223" value="ACS server" style="text;html=1;align=center;verticalAlign=middle;whiteSpace=wrap;rounded=0;fontSize=15;fontStyle=1" parent="1" vertex="1">
          <mxGeometry x="2840" y="1462.5" width="122.5" height="30" as="geometry" />
        </mxCell>
        <mxCell id="dyV9W-r_03pvVqOs8cW6-224" value="" style="endArrow=classic;startArrow=classic;html=1;rounded=0;exitX=1;exitY=0.5;exitDx=0;exitDy=0;entryX=0;entryY=0.5;entryDx=0;entryDy=0;" parent="1" source="dyV9W-r_03pvVqOs8cW6-160" target="dyV9W-r_03pvVqOs8cW6-222" edge="1">
          <mxGeometry width="50" height="50" relative="1" as="geometry">
            <mxPoint x="2760" y="1282.5" as="sourcePoint" />
            <mxPoint x="2810" y="1232.5" as="targetPoint" />
          </mxGeometry>
        </mxCell>
        <mxCell id="dyV9W-r_03pvVqOs8cW6-228" value="Start" style="text;html=1;align=center;verticalAlign=middle;whiteSpace=wrap;rounded=0;fontStyle=1;fontSize=15;" parent="1" vertex="1">
          <mxGeometry x="1625" y="1252.5" width="60" height="30" as="geometry" />
        </mxCell>
        <mxCell id="dyV9W-r_03pvVqOs8cW6-229" value="Close ACS&lt;br&gt;connection" style="text;html=1;align=center;verticalAlign=middle;whiteSpace=wrap;rounded=0;fontStyle=1;fontSize=15;" parent="1" vertex="1">
          <mxGeometry x="2929.38" y="2272.5" width="93.75" height="30" as="geometry" />
        </mxCell>
        <mxCell id="9g7T9j7MAoSJXBejlpkE-1" value="" style="rounded=1;whiteSpace=wrap;html=1;fillColor=#d5e8d4;strokeColor=#82b366;" parent="1" vertex="1">
          <mxGeometry x="263" y="1314" width="210" height="350" as="geometry" />
        </mxCell>
        <mxCell id="9g7T9j7MAoSJXBejlpkE-2" value="web_backend&lt;br&gt;module" style="rounded=0;whiteSpace=wrap;html=1;fillColor=#fff2cc;strokeColor=#d6b656;" parent="1" vertex="1">
          <mxGeometry x="278" y="1414" width="180" height="50" as="geometry" />
        </mxCell>
        <mxCell id="9g7T9j7MAoSJXBejlpkE-3" value="" style="rounded=1;whiteSpace=wrap;html=1;fillColor=#d5e8d4;strokeColor=#82b366;" parent="1" vertex="1">
          <mxGeometry x="553" y="1314" width="210" height="350" as="geometry" />
        </mxCell>
        <mxCell id="9g7T9j7MAoSJXBejlpkE-4" value="" style="rounded=1;whiteSpace=wrap;html=1;fillColor=#d5e8d4;strokeColor=#82b366;" parent="1" vertex="1">
          <mxGeometry x="843" y="1314" width="210" height="350" as="geometry" />
        </mxCell>
        <mxCell id="9g7T9j7MAoSJXBejlpkE-5" value="&lt;b&gt;genieacs_sim&lt;br&gt;&lt;/b&gt;module" style="rounded=0;whiteSpace=wrap;html=1;fillColor=#fff2cc;strokeColor=#d6b656;" parent="1" vertex="1">
          <mxGeometry x="278" y="1474" width="180" height="50" as="geometry" />
        </mxCell>
        <mxCell id="9g7T9j7MAoSJXBejlpkE-6" value="Device end" style="text;html=1;align=center;verticalAlign=middle;whiteSpace=wrap;rounded=0;fontStyle=1;fillColor=#f8cecc;strokeColor=#b85450;" parent="1" vertex="1">
          <mxGeometry x="308" y="1664" width="120" height="30" as="geometry" />
        </mxCell>
        <mxCell id="9g7T9j7MAoSJXBejlpkE-7" value="Back end" style="text;html=1;align=center;verticalAlign=middle;whiteSpace=wrap;rounded=0;fontStyle=1;fillColor=#f8cecc;strokeColor=#b85450;" parent="1" vertex="1">
          <mxGeometry x="598" y="1664" width="120" height="30" as="geometry" />
        </mxCell>
        <mxCell id="9g7T9j7MAoSJXBejlpkE-8" value="Front end" style="text;html=1;align=center;verticalAlign=middle;whiteSpace=wrap;rounded=0;fontStyle=1;fillColor=#f8cecc;strokeColor=#b85450;" parent="1" vertex="1">
          <mxGeometry x="888" y="1664" width="120" height="30" as="geometry" />
        </mxCell>
        <mxCell id="9g7T9j7MAoSJXBejlpkE-9" value="genieacs-nbi" style="rounded=0;whiteSpace=wrap;html=1;fontStyle=1;fillColor=#fff2cc;strokeColor=#d6b656;" parent="1" vertex="1">
          <mxGeometry x="568" y="1391.5" width="180" height="50" as="geometry" />
        </mxCell>
        <mxCell id="9g7T9j7MAoSJXBejlpkE-10" value="genieacs-cwmp" style="rounded=0;whiteSpace=wrap;html=1;fontStyle=1;fillColor=#fff2cc;strokeColor=#d6b656;" parent="1" vertex="1">
          <mxGeometry x="568" y="1329" width="180" height="50" as="geometry" />
        </mxCell>
        <mxCell id="9g7T9j7MAoSJXBejlpkE-11" value="genieacs-fs" style="rounded=0;whiteSpace=wrap;html=1;fontStyle=1;fillColor=#fff2cc;strokeColor=#d6b656;" parent="1" vertex="1">
          <mxGeometry x="568" y="1454" width="180" height="50" as="geometry" />
        </mxCell>
        <mxCell id="9g7T9j7MAoSJXBejlpkE-12" value="ACS Server&lt;br&gt;(LIB)" style="rounded=0;whiteSpace=wrap;html=1;fontStyle=1;fillColor=#fff2cc;strokeColor=#d6b656;" parent="1" vertex="1">
          <mxGeometry x="568" y="1514" width="180" height="50" as="geometry" />
        </mxCell>
        <mxCell id="9g7T9j7MAoSJXBejlpkE-13" value="MongoDB" style="rounded=0;whiteSpace=wrap;html=1;fontStyle=1;fillColor=#fff2cc;strokeColor=#d6b656;" parent="1" vertex="1">
          <mxGeometry x="568" y="1574" width="180" height="50" as="geometry" />
        </mxCell>
        <mxCell id="9g7T9j7MAoSJXBejlpkE-14" value="Server WebUI&lt;br&gt;GUI Management&lt;br&gt;&lt;b&gt;(geniacs-ui)&lt;/b&gt;" style="rounded=0;whiteSpace=wrap;html=1;fillColor=#fff2cc;strokeColor=#d6b656;" parent="1" vertex="1">
          <mxGeometry x="858" y="1329" width="180" height="95" as="geometry" />
        </mxCell>
        <mxCell id="9g7T9j7MAoSJXBejlpkE-16" value="web_simulator" style="rounded=0;whiteSpace=wrap;html=1;fillColor=#fff2cc;strokeColor=#d6b656;" parent="1" vertex="1">
          <mxGeometry x="278" y="1329" width="180" height="50" as="geometry" />
        </mxCell>
        <mxCell id="9g7T9j7MAoSJXBejlpkE-17" value="" style="shape=flexArrow;endArrow=classic;startArrow=classic;html=1;rounded=0;exitX=0.5;exitY=0;exitDx=0;exitDy=0;entryX=0.5;entryY=1;entryDx=0;entryDy=0;width=15.333333333333334;startSize=3.2;endSize=2.88;fillColor=#dae8fc;strokeColor=#6c8ebf;" parent="1" source="9g7T9j7MAoSJXBejlpkE-2" target="9g7T9j7MAoSJXBejlpkE-16" edge="1">
          <mxGeometry width="100" height="100" relative="1" as="geometry">
            <mxPoint x="493" y="1474" as="sourcePoint" />
            <mxPoint x="593" y="1374" as="targetPoint" />
          </mxGeometry>
        </mxCell>
        <mxCell id="9g7T9j7MAoSJXBejlpkE-18" value="TR069" style="shape=flexArrow;endArrow=classic;startArrow=classic;html=1;rounded=0;exitX=1;exitY=0.5;exitDx=0;exitDy=0;entryX=0;entryY=0.5;entryDx=0;entryDy=0;width=19.333333333333332;startSize=6;fillColor=#dae8fc;strokeColor=#6c8ebf;strokeWidth=2;" parent="1" source="9g7T9j7MAoSJXBejlpkE-1" target="9g7T9j7MAoSJXBejlpkE-3" edge="1">
          <mxGeometry width="100" height="100" relative="1" as="geometry">
            <mxPoint x="483" y="1514" as="sourcePoint" />
            <mxPoint x="583" y="1414" as="targetPoint" />
          </mxGeometry>
        </mxCell>
        <mxCell id="9g7T9j7MAoSJXBejlpkE-19" value="HTTP" style="shape=flexArrow;endArrow=classic;startArrow=classic;html=1;rounded=0;exitX=1;exitY=0.5;exitDx=0;exitDy=0;entryX=0;entryY=0.5;entryDx=0;entryDy=0;width=20;startSize=6.109999999999999;fillColor=#dae8fc;strokeColor=#6c8ebf;strokeWidth=2;" parent="1" source="9g7T9j7MAoSJXBejlpkE-3" target="9g7T9j7MAoSJXBejlpkE-4" edge="1">
          <mxGeometry width="100" height="100" relative="1" as="geometry">
            <mxPoint x="763" y="1409" as="sourcePoint" />
            <mxPoint x="843" y="1409" as="targetPoint" />
          </mxGeometry>
        </mxCell>
        <mxCell id="9g7T9j7MAoSJXBejlpkE-50" value="HTTP" style="edgeStyle=orthogonalEdgeStyle;rounded=0;orthogonalLoop=1;jettySize=auto;html=1;entryX=0;entryY=0.5;entryDx=0;entryDy=0;startArrow=classic;startFill=1;shape=flexArrow;fillColor=#dae8fc;strokeColor=#6c8ebf;width=18.620689655172416;endSize=6.422988505747127;strokeWidth=2;" parent="1" source="9g7T9j7MAoSJXBejlpkE-24" target="9g7T9j7MAoSJXBejlpkE-45" edge="1">
          <mxGeometry relative="1" as="geometry">
            <Array as="points">
              <mxPoint x="361" y="1903.5" />
            </Array>
          </mxGeometry>
        </mxCell>
        <mxCell id="9g7T9j7MAoSJXBejlpkE-29" value="Front end" style="text;html=1;align=center;verticalAlign=middle;whiteSpace=wrap;rounded=0;fontStyle=1;fillColor=#f8cecc;strokeColor=#b85450;" parent="1" vertex="1">
          <mxGeometry x="256" y="1861.5" width="74" height="30" as="geometry" />
        </mxCell>
        <mxCell id="9g7T9j7MAoSJXBejlpkE-30" value="Backend" style="text;html=1;align=center;verticalAlign=middle;whiteSpace=wrap;rounded=0;fontStyle=1;fillColor=#f8cecc;strokeColor=#b85450;" parent="1" vertex="1">
          <mxGeometry x="691.5" y="2146" width="120" height="30" as="geometry" />
        </mxCell>
        <mxCell id="9g7T9j7MAoSJXBejlpkE-31" value="ACS Server" style="text;html=1;align=center;verticalAlign=middle;whiteSpace=wrap;rounded=0;fontStyle=1" parent="1" vertex="1">
          <mxGeometry x="1079" y="2023.5" width="120" height="30" as="geometry" />
        </mxCell>
        <mxCell id="9g7T9j7MAoSJXBejlpkE-41" value="TR069" style="shape=flexArrow;endArrow=classic;startArrow=classic;html=1;rounded=0;exitX=1;exitY=0.5;exitDx=0;exitDy=0;entryX=0;entryY=0.5;entryDx=0;entryDy=0;width=20;startSize=6.109999999999999;fillColor=#dae8fc;strokeColor=#6c8ebf;strokeWidth=2;" parent="1" source="9g7T9j7MAoSJXBejlpkE-46" target="9g7T9j7MAoSJXBejlpkE-27" edge="1">
          <mxGeometry width="100" height="100" relative="1" as="geometry">
            <mxPoint x="756" y="1891" as="sourcePoint" />
            <mxPoint x="836" y="1891" as="targetPoint" />
          </mxGeometry>
        </mxCell>
        <mxCell id="z2xaD7FAKLGy1QCzAx4l-2" style="edgeStyle=orthogonalEdgeStyle;rounded=0;orthogonalLoop=1;jettySize=auto;html=1;entryX=0.5;entryY=0;entryDx=0;entryDy=0;dashed=1;" parent="1" source="9g7T9j7MAoSJXBejlpkE-45" target="9g7T9j7MAoSJXBejlpkE-46" edge="1">
          <mxGeometry relative="1" as="geometry">
            <Array as="points">
              <mxPoint x="835" y="1903.5" />
            </Array>
          </mxGeometry>
        </mxCell>
        <mxCell id="9g7T9j7MAoSJXBejlpkE-45" value="web_backend&lt;br&gt;module" style="rounded=0;whiteSpace=wrap;html=1;fillColor=#fff2cc;strokeColor=#d6b656;" parent="1" vertex="1">
          <mxGeometry x="625.5" y="1878.5" width="180" height="50" as="geometry" />
        </mxCell>
        <mxCell id="9g7T9j7MAoSJXBejlpkE-46" value="&lt;b&gt;genieacs_sim&lt;br&gt;&lt;/b&gt;module" style="rounded=0;whiteSpace=wrap;html=1;fillColor=#fff2cc;strokeColor=#d6b656;" parent="1" vertex="1">
          <mxGeometry x="745" y="2013.5" width="180" height="50" as="geometry" />
        </mxCell>
        <mxCell id="z2xaD7FAKLGy1QCzAx4l-1" value="Set&lt;br&gt;Get" style="edgeStyle=orthogonalEdgeStyle;rounded=0;orthogonalLoop=1;jettySize=auto;html=1;entryX=0;entryY=0.5;entryDx=0;entryDy=0;startArrow=classic;startFill=1;exitX=0.982;exitY=0.749;exitDx=0;exitDy=0;exitPerimeter=0;" parent="1" source="9g7T9j7MAoSJXBejlpkE-47" target="9g7T9j7MAoSJXBejlpkE-46" edge="1">
          <mxGeometry relative="1" as="geometry">
            <Array as="points" />
          </mxGeometry>
        </mxCell>
        <mxCell id="9g7T9j7MAoSJXBejlpkE-47" value="data base" style="shape=note;whiteSpace=wrap;html=1;backgroundOutline=1;darkOpacity=0.05;fillColor=#fff2cc;strokeColor=#d6b656;" parent="1" vertex="1">
          <mxGeometry x="605" y="1963.5" width="80" height="100" as="geometry" />
        </mxCell>
        <mxCell id="9g7T9j7MAoSJXBejlpkE-51" value="Set&lt;br&gt;Get" style="edgeStyle=orthogonalEdgeStyle;rounded=0;orthogonalLoop=1;jettySize=auto;html=1;entryX=0.5;entryY=0;entryDx=0;entryDy=0;entryPerimeter=0;startArrow=classic;startFill=1;" parent="1" source="9g7T9j7MAoSJXBejlpkE-45" target="9g7T9j7MAoSJXBejlpkE-47" edge="1">
          <mxGeometry relative="1" as="geometry" />
        </mxCell>
        <mxCell id="9g7T9j7MAoSJXBejlpkE-56" value="ACS Server" style="text;html=1;align=center;verticalAlign=middle;whiteSpace=wrap;rounded=0;fontSize=15;fontStyle=1" parent="1" vertex="1">
          <mxGeometry x="752.5" y="1272.5" width="105" height="30" as="geometry" />
        </mxCell>
        <mxCell id="9g7T9j7MAoSJXBejlpkE-61" value="Web simulator" style="rounded=0;whiteSpace=wrap;html=1;fillColor=#fff2cc;strokeColor=#d6b656;" parent="1" vertex="1">
          <mxGeometry x="271" y="1803.75" width="180" height="50" as="geometry" />
        </mxCell>
        <mxCell id="z2xaD7FAKLGy1QCzAx4l-8" value="Device end" style="text;html=1;align=center;verticalAlign=middle;whiteSpace=wrap;rounded=0;fontStyle=1;fontSize=15;fillColor=#f8cecc;strokeColor=#b85450;" parent="1" vertex="1">
          <mxGeometry x="550" y="2192.5" width="120" height="30" as="geometry" />
        </mxCell>
        <mxCell id="z2xaD7FAKLGy1QCzAx4l-9" value="database" style="shape=note;whiteSpace=wrap;html=1;backgroundOutline=1;darkOpacity=0.05;fillColor=#dae8fc;strokeColor=#6c8ebf;size=21;" parent="1" vertex="1">
          <mxGeometry x="433" y="300" width="60" height="70" as="geometry" />
        </mxCell>
        <mxCell id="z2xaD7FAKLGy1QCzAx4l-10" value="Set" style="edgeStyle=orthogonalEdgeStyle;rounded=0;orthogonalLoop=1;jettySize=auto;html=1;curved=0;entryX=0;entryY=0;entryDx=25;entryDy=0;entryPerimeter=0;strokeWidth=2;" parent="1" target="z2xaD7FAKLGy1QCzAx4l-9" edge="1" source="dyV9W-r_03pvVqOs8cW6-8">
          <mxGeometry relative="1" as="geometry">
            <mxPoint x="370" y="330" as="sourcePoint" />
            <Array as="points">
              <mxPoint x="457" y="280" />
            </Array>
          </mxGeometry>
        </mxCell>
        <mxCell id="z2xaD7FAKLGy1QCzAx4l-12" value="Connect command" style="edgeStyle=orthogonalEdgeStyle;rounded=0;orthogonalLoop=1;jettySize=auto;html=1;curved=0;strokeWidth=2;" parent="1" edge="1">
          <mxGeometry relative="1" as="geometry">
            <mxPoint x="371" y="400" as="sourcePoint" />
            <mxPoint x="561" y="400" as="targetPoint" />
            <Array as="points">
              <mxPoint x="511" y="400" />
              <mxPoint x="511" y="400" />
            </Array>
          </mxGeometry>
        </mxCell>
        <mxCell id="z2xaD7FAKLGy1QCzAx4l-21" value="Close command" style="edgeStyle=orthogonalEdgeStyle;rounded=0;orthogonalLoop=1;jettySize=auto;html=1;curved=0;strokeWidth=2;" parent="1" source="dyV9W-r_03pvVqOs8cW6-8" target="dyV9W-r_03pvVqOs8cW6-9" edge="1">
          <mxGeometry relative="1" as="geometry">
            <Array as="points">
              <mxPoint x="460" y="520" />
              <mxPoint x="460" y="520" />
            </Array>
            <mxPoint x="371" y="530" as="sourcePoint" />
            <mxPoint x="561.0000000000002" y="530" as="targetPoint" />
          </mxGeometry>
        </mxCell>
        <mxCell id="z2xaD7FAKLGy1QCzAx4l-28" value="Front-end" style="shape=umlLifeline;perimeter=lifelinePerimeter;whiteSpace=wrap;html=1;container=1;dropTarget=0;collapsible=0;recursiveResize=0;outlineConnect=0;portConstraint=eastwest;newEdgeStyle={&quot;curved&quot;:0,&quot;rounded&quot;:0};fillColor=#dae8fc;strokeColor=#6c8ebf;" parent="1" vertex="1">
          <mxGeometry x="1980" y="180" width="100" height="660" as="geometry" />
        </mxCell>
        <mxCell id="z2xaD7FAKLGy1QCzAx4l-29" value="" style="html=1;points=[[0,0,0,0,5],[0,1,0,0,-5],[1,0,0,0,5],[1,1,0,0,-5]];perimeter=orthogonalPerimeter;outlineConnect=0;targetShapes=umlLifeline;portConstraint=eastwest;newEdgeStyle={&quot;curved&quot;:0,&quot;rounded&quot;:0};fillColor=#ffe6cc;strokeColor=#d79b00;" parent="z2xaD7FAKLGy1QCzAx4l-28" vertex="1">
          <mxGeometry x="45" y="60" width="10" height="590" as="geometry" />
        </mxCell>
        <mxCell id="sSDNLOhi34IHWkg_GrEN-23" value="Alert" style="endArrow=classic;html=1;rounded=0;" edge="1" parent="z2xaD7FAKLGy1QCzAx4l-28" source="z2xaD7FAKLGy1QCzAx4l-29" target="z2xaD7FAKLGy1QCzAx4l-29">
          <mxGeometry width="50" height="50" relative="1" as="geometry">
            <mxPoint x="-40" y="270" as="sourcePoint" />
            <mxPoint x="10" y="220" as="targetPoint" />
            <Array as="points">
              <mxPoint x="10" y="490" />
              <mxPoint x="10" y="520" />
            </Array>
          </mxGeometry>
        </mxCell>
        <mxCell id="z2xaD7FAKLGy1QCzAx4l-30" value="Web-Backend" style="shape=umlLifeline;perimeter=lifelinePerimeter;whiteSpace=wrap;html=1;container=1;dropTarget=0;collapsible=0;recursiveResize=0;outlineConnect=0;portConstraint=eastwest;newEdgeStyle={&quot;curved&quot;:0,&quot;rounded&quot;:0};fillColor=#dae8fc;strokeColor=#6c8ebf;" parent="1" vertex="1">
          <mxGeometry x="2200" y="180" width="100" height="660" as="geometry" />
        </mxCell>
        <mxCell id="z2xaD7FAKLGy1QCzAx4l-31" value="" style="html=1;points=[[0,0,0,0,5],[0,1,0,0,-5],[1,0,0,0,5],[1,1,0,0,-5]];perimeter=orthogonalPerimeter;outlineConnect=0;targetShapes=umlLifeline;portConstraint=eastwest;newEdgeStyle={&quot;curved&quot;:0,&quot;rounded&quot;:0};fillColor=#ffe6cc;strokeColor=#d79b00;" parent="z2xaD7FAKLGy1QCzAx4l-30" vertex="1">
          <mxGeometry x="45" y="60" width="10" height="590" as="geometry" />
        </mxCell>
        <mxCell id="z2xaD7FAKLGy1QCzAx4l-32" value="Parse param value" style="edgeStyle=orthogonalEdgeStyle;rounded=0;orthogonalLoop=1;jettySize=auto;html=1;curved=0;" parent="z2xaD7FAKLGy1QCzAx4l-30" source="z2xaD7FAKLGy1QCzAx4l-31" edge="1">
          <mxGeometry x="0.0034" relative="1" as="geometry">
            <Array as="points">
              <mxPoint x="105" y="90" />
              <mxPoint x="105" y="130" />
            </Array>
            <mxPoint x="55" y="130" as="sourcePoint" />
            <mxPoint x="55.5" y="130" as="targetPoint" />
            <mxPoint as="offset" />
          </mxGeometry>
        </mxCell>
        <mxCell id="z2xaD7FAKLGy1QCzAx4l-33" value="genieacs-sim&lt;br&gt;module" style="shape=umlLifeline;perimeter=lifelinePerimeter;whiteSpace=wrap;html=1;container=1;dropTarget=0;collapsible=0;recursiveResize=0;outlineConnect=0;portConstraint=eastwest;newEdgeStyle={&quot;curved&quot;:0,&quot;rounded&quot;:0};fillColor=#dae8fc;strokeColor=#6c8ebf;" parent="1" vertex="1">
          <mxGeometry x="2400" y="180" width="100" height="660" as="geometry" />
        </mxCell>
        <mxCell id="z2xaD7FAKLGy1QCzAx4l-34" value="" style="html=1;points=[[0,0,0,0,5],[0,1,0,0,-5],[1,0,0,0,5],[1,1,0,0,-5]];perimeter=orthogonalPerimeter;outlineConnect=0;targetShapes=umlLifeline;portConstraint=eastwest;newEdgeStyle={&quot;curved&quot;:0,&quot;rounded&quot;:0};fillColor=#ffe6cc;strokeColor=#d79b00;" parent="z2xaD7FAKLGy1QCzAx4l-33" vertex="1">
          <mxGeometry x="45" y="60" width="10" height="330" as="geometry" />
        </mxCell>
        <mxCell id="sSDNLOhi34IHWkg_GrEN-19" value="" style="shape=umlDestroy;whiteSpace=wrap;html=1;strokeWidth=3;targetShapes=umlLifeline;" vertex="1" parent="z2xaD7FAKLGy1QCzAx4l-33">
          <mxGeometry x="35" y="390" width="30" height="30" as="geometry" />
        </mxCell>
        <mxCell id="z2xaD7FAKLGy1QCzAx4l-38" value="ACS Server" style="shape=umlLifeline;perimeter=lifelinePerimeter;whiteSpace=wrap;html=1;container=1;dropTarget=0;collapsible=0;recursiveResize=0;outlineConnect=0;portConstraint=eastwest;newEdgeStyle={&quot;curved&quot;:0,&quot;rounded&quot;:0};fillColor=#dae8fc;strokeColor=#6c8ebf;" parent="1" vertex="1">
          <mxGeometry x="2580" y="180" width="100" height="660" as="geometry" />
        </mxCell>
        <mxCell id="z2xaD7FAKLGy1QCzAx4l-39" value="" style="html=1;points=[[0,0,0,0,5],[0,1,0,0,-5],[1,0,0,0,5],[1,1,0,0,-5]];perimeter=orthogonalPerimeter;outlineConnect=0;targetShapes=umlLifeline;portConstraint=eastwest;newEdgeStyle={&quot;curved&quot;:0,&quot;rounded&quot;:0};fillColor=#ffe6cc;strokeColor=#d79b00;" parent="z2xaD7FAKLGy1QCzAx4l-38" vertex="1">
          <mxGeometry x="45" y="60" width="10" height="590" as="geometry" />
        </mxCell>
        <mxCell id="z2xaD7FAKLGy1QCzAx4l-40" value="HTTP POST request" style="edgeStyle=orthogonalEdgeStyle;rounded=0;orthogonalLoop=1;jettySize=auto;html=1;curved=0;" parent="1" source="z2xaD7FAKLGy1QCzAx4l-29" target="z2xaD7FAKLGy1QCzAx4l-31" edge="1">
          <mxGeometry x="0.0008" relative="1" as="geometry">
            <Array as="points">
              <mxPoint x="2146" y="267" />
              <mxPoint x="2146" y="267" />
            </Array>
            <mxPoint as="offset" />
          </mxGeometry>
        </mxCell>
        <mxCell id="z2xaD7FAKLGy1QCzAx4l-41" value="Send Inform" style="edgeStyle=orthogonalEdgeStyle;rounded=0;orthogonalLoop=1;jettySize=auto;html=1;curved=0;startArrow=none;startFill=0;" parent="1" source="z2xaD7FAKLGy1QCzAx4l-34" target="z2xaD7FAKLGy1QCzAx4l-39" edge="1">
          <mxGeometry relative="1" as="geometry">
            <Array as="points">
              <mxPoint x="2560" y="450" />
              <mxPoint x="2560" y="450" />
            </Array>
            <mxPoint as="offset" />
            <mxPoint x="2455" y="590" as="sourcePoint" />
            <mxPoint x="2665" y="590" as="targetPoint" />
          </mxGeometry>
        </mxCell>
        <mxCell id="u9MrL0pmHw4xpQcuTnSF-5" value="Enable CWMP" style="shape=umlFrame;whiteSpace=wrap;html=1;pointerEvents=0;fillColor=#d5e8d4;strokeColor=#82b366;" parent="1" vertex="1">
          <mxGeometry x="2170" y="420" width="510" height="50" as="geometry" />
        </mxCell>
        <mxCell id="LGfuTEwCRZhwQVEG0GSM-25" value="" style="rounded=0;whiteSpace=wrap;html=1;fillColor=none;strokeWidth=3;strokeColor=#ff0000;" parent="1" vertex="1">
          <mxGeometry x="3870" y="520" width="190" height="130" as="geometry" />
        </mxCell>
        <mxCell id="LGfuTEwCRZhwQVEG0GSM-28" value="ACS Server" style="html=1;whiteSpace=wrap;" parent="1" vertex="1">
          <mxGeometry x="3695" y="938" width="110" height="50" as="geometry" />
        </mxCell>
        <mxCell id="V5TbLCFQxRqEsvW2R4SY-13" style="edgeStyle=orthogonalEdgeStyle;rounded=0;orthogonalLoop=1;jettySize=auto;html=1;entryX=1;entryY=0.5;entryDx=0;entryDy=0;startArrow=block;startFill=1;endArrow=block;endFill=1;shape=flexArrow;endWidth=11.385459533607682;endSize=4.605555555555555;startWidth=11.385459533607682;startSize=5.318518518518518;width=8.518518518518517;fillColor=#1ba1e2;strokeColor=#006EAF;" parent="1" source="LGfuTEwCRZhwQVEG0GSM-30" target="LGfuTEwCRZhwQVEG0GSM-28" edge="1">
          <mxGeometry relative="1" as="geometry" />
        </mxCell>
        <mxCell id="LGfuTEwCRZhwQVEG0GSM-30" value="genieacs-sim&lt;br&gt;module" style="html=1;whiteSpace=wrap;" parent="1" vertex="1">
          <mxGeometry x="3903.25" y="938" width="110" height="50" as="geometry" />
        </mxCell>
        <mxCell id="_MCF-a0uF96S5uMfog8k-1" style="edgeStyle=orthogonalEdgeStyle;rounded=0;orthogonalLoop=1;jettySize=auto;html=1;entryX=0.5;entryY=0;entryDx=0;entryDy=0;dashed=1;" parent="1" source="LGfuTEwCRZhwQVEG0GSM-31" target="LGfuTEwCRZhwQVEG0GSM-30" edge="1">
          <mxGeometry relative="1" as="geometry" />
        </mxCell>
        <mxCell id="LGfuTEwCRZhwQVEG0GSM-31" value="Web_Backend&lt;br&gt;module" style="html=1;whiteSpace=wrap;" parent="1" vertex="1">
          <mxGeometry x="3903.25" y="729" width="110" height="50" as="geometry" />
        </mxCell>
        <mxCell id="LGfuTEwCRZhwQVEG0GSM-33" value="database" style="shape=note;whiteSpace=wrap;html=1;backgroundOutline=1;darkOpacity=0.05;fillColor=#d5e8d4;strokeColor=#82b366;" parent="1" vertex="1">
          <mxGeometry x="4072" y="809" width="80" height="100" as="geometry" />
        </mxCell>
        <mxCell id="LGfuTEwCRZhwQVEG0GSM-35" style="edgeStyle=orthogonalEdgeStyle;rounded=0;orthogonalLoop=1;jettySize=auto;html=1;entryX=0.5;entryY=0;entryDx=0;entryDy=0;exitX=0.25;exitY=1;exitDx=0;exitDy=0;" parent="1" source="LGfuTEwCRZhwQVEG0GSM-37" target="LGfuTEwCRZhwQVEG0GSM-39" edge="1">
          <mxGeometry relative="1" as="geometry">
            <Array as="points">
              <mxPoint x="3810" y="430" />
              <mxPoint x="3740" y="430" />
            </Array>
          </mxGeometry>
        </mxCell>
        <mxCell id="LGfuTEwCRZhwQVEG0GSM-36" style="edgeStyle=orthogonalEdgeStyle;rounded=0;orthogonalLoop=1;jettySize=auto;html=1;entryX=0.5;entryY=0;entryDx=0;entryDy=0;exitX=0.75;exitY=1;exitDx=0;exitDy=0;" parent="1" source="LGfuTEwCRZhwQVEG0GSM-37" target="LGfuTEwCRZhwQVEG0GSM-38" edge="1">
          <mxGeometry relative="1" as="geometry">
            <Array as="points">
              <mxPoint x="3870" y="430" />
              <mxPoint x="3950" y="430" />
            </Array>
          </mxGeometry>
        </mxCell>
        <mxCell id="LGfuTEwCRZhwQVEG0GSM-37" value="ACS Server" style="rounded=0;whiteSpace=wrap;html=1;fillColor=#f5f5f5;fontColor=#333333;strokeColor=#666666;" parent="1" vertex="1">
          <mxGeometry x="3780" y="350" width="120" height="60" as="geometry" />
        </mxCell>
        <mxCell id="LGfuTEwCRZhwQVEG0GSM-38" value="" style="rounded=0;whiteSpace=wrap;html=1;fillColor=#f8cecc;strokeColor=#b85450;" parent="1" vertex="1">
          <mxGeometry x="3890" y="540" width="120" height="60" as="geometry" />
        </mxCell>
        <mxCell id="LGfuTEwCRZhwQVEG0GSM-39" value="" style="rounded=0;whiteSpace=wrap;html=1;" parent="1" vertex="1">
          <mxGeometry x="3680" y="540" width="120" height="60" as="geometry" />
        </mxCell>
        <mxCell id="LGfuTEwCRZhwQVEG0GSM-40" value="" style="rounded=0;whiteSpace=wrap;html=1;" parent="1" vertex="1">
          <mxGeometry x="3690" y="550" width="120" height="60" as="geometry" />
        </mxCell>
        <mxCell id="LGfuTEwCRZhwQVEG0GSM-41" value="" style="rounded=0;whiteSpace=wrap;html=1;" parent="1" vertex="1">
          <mxGeometry x="3700" y="560" width="120" height="60" as="geometry" />
        </mxCell>
        <mxCell id="LGfuTEwCRZhwQVEG0GSM-42" value="Real devices" style="rounded=0;whiteSpace=wrap;html=1;" parent="1" vertex="1">
          <mxGeometry x="3710" y="570" width="120" height="60" as="geometry" />
        </mxCell>
        <mxCell id="LGfuTEwCRZhwQVEG0GSM-43" value="" style="rounded=0;whiteSpace=wrap;html=1;fillColor=#f8cecc;strokeColor=#b85450;" parent="1" vertex="1">
          <mxGeometry x="3900" y="550" width="120" height="60" as="geometry" />
        </mxCell>
        <mxCell id="LGfuTEwCRZhwQVEG0GSM-44" value="" style="rounded=0;whiteSpace=wrap;html=1;fillColor=#f8cecc;strokeColor=#b85450;" parent="1" vertex="1">
          <mxGeometry x="3910" y="560" width="120" height="60" as="geometry" />
        </mxCell>
        <mxCell id="LGfuTEwCRZhwQVEG0GSM-45" value="Virtual devices" style="rounded=0;whiteSpace=wrap;html=1;fillColor=#f8cecc;strokeColor=#b85450;" parent="1" vertex="1">
          <mxGeometry x="3920" y="570" width="120" height="60" as="geometry" />
        </mxCell>
        <mxCell id="V5TbLCFQxRqEsvW2R4SY-9" style="edgeStyle=orthogonalEdgeStyle;rounded=0;orthogonalLoop=1;jettySize=auto;html=1;entryX=0;entryY=0.5;entryDx=0;entryDy=0;startArrow=block;startFill=1;endArrow=block;endFill=1;shape=flexArrow;width=5.3125;startSize=2.272222222222222;endSize=2.912962962962963;startWidth=5.127314814814815;endWidth=5.127314814814815;fillColor=#1ba1e2;strokeColor=#006EAF;" parent="1" source="V5TbLCFQxRqEsvW2R4SY-1" target="V5TbLCFQxRqEsvW2R4SY-4" edge="1">
          <mxGeometry relative="1" as="geometry" />
        </mxCell>
        <mxCell id="V5TbLCFQxRqEsvW2R4SY-1" value="Local&lt;div&gt;Storage&lt;/div&gt;" style="html=1;whiteSpace=wrap;fillColor=#f5f5f5;strokeColor=#666666;fontColor=#333333;" parent="1" vertex="1">
          <mxGeometry x="3702" y="729" width="60" height="50" as="geometry" />
        </mxCell>
        <mxCell id="V5TbLCFQxRqEsvW2R4SY-8" style="edgeStyle=orthogonalEdgeStyle;rounded=0;orthogonalLoop=1;jettySize=auto;html=1;entryX=0;entryY=0.5;entryDx=0;entryDy=0;startArrow=block;startFill=1;endArrow=block;endFill=1;shape=flexArrow;width=4.903225806451613;startSize=2.7037037037037033;endSize=2.7037037037037033;startWidth=4.832735961768219;endWidth=4.832735961768219;fillColor=#1ba1e2;strokeColor=#006EAF;" parent="1" source="V5TbLCFQxRqEsvW2R4SY-2" target="V5TbLCFQxRqEsvW2R4SY-1" edge="1">
          <mxGeometry relative="1" as="geometry" />
        </mxCell>
        <mxCell id="V5TbLCFQxRqEsvW2R4SY-2" value="UI" style="html=1;whiteSpace=wrap;" parent="1" vertex="1">
          <mxGeometry x="3592" y="729" width="60" height="50" as="geometry" />
        </mxCell>
        <mxCell id="V5TbLCFQxRqEsvW2R4SY-10" style="edgeStyle=orthogonalEdgeStyle;rounded=0;orthogonalLoop=1;jettySize=auto;html=1;entryX=0;entryY=0.5;entryDx=0;entryDy=0;startArrow=block;startFill=1;endArrow=block;endFill=1;shape=flexArrow;startWidth=11.01123595505618;startSize=4.48314606741573;width=7.415730337078651;endSize=4.48314606741573;endWidth=11.01123595505618;fillColor=#1ba1e2;strokeColor=#006EAF;" parent="1" source="V5TbLCFQxRqEsvW2R4SY-4" target="LGfuTEwCRZhwQVEG0GSM-31" edge="1">
          <mxGeometry relative="1" as="geometry" />
        </mxCell>
        <mxCell id="V5TbLCFQxRqEsvW2R4SY-4" value="" style="ellipse;whiteSpace=wrap;html=1;fillColor=#e1d5e7;strokeColor=#9673a6;" parent="1" vertex="1">
          <mxGeometry x="3802" y="726.5" width="20" height="55" as="geometry" />
        </mxCell>
        <mxCell id="V5TbLCFQxRqEsvW2R4SY-11" style="edgeStyle=orthogonalEdgeStyle;rounded=0;orthogonalLoop=1;jettySize=auto;html=1;entryX=0;entryY=0;entryDx=25;entryDy=0;entryPerimeter=0;startArrow=block;startFill=1;endArrow=block;endFill=1;shape=flexArrow;startWidth=8.222222222222221;startSize=4.998130841121496;width=9.345794392523365;endWidth=8.222222222222221;endSize=4.335555555555556;fillColor=#1ba1e2;strokeColor=#006EAF;" parent="1" source="LGfuTEwCRZhwQVEG0GSM-31" target="LGfuTEwCRZhwQVEG0GSM-33" edge="1">
          <mxGeometry relative="1" as="geometry" />
        </mxCell>
        <mxCell id="V5TbLCFQxRqEsvW2R4SY-12" style="edgeStyle=orthogonalEdgeStyle;rounded=0;orthogonalLoop=1;jettySize=auto;html=1;entryX=0.5;entryY=1;entryDx=0;entryDy=0;entryPerimeter=0;startArrow=block;startFill=1;endArrow=block;endFill=1;shape=flexArrow;width=10.78125;endSize=3.979775280898876;endWidth=11.114758237596263;startWidth=11.114758237596263;startSize=4.906249999999999;fillColor=#1ba1e2;strokeColor=#006EAF;" parent="1" source="LGfuTEwCRZhwQVEG0GSM-30" target="LGfuTEwCRZhwQVEG0GSM-33" edge="1">
          <mxGeometry relative="1" as="geometry" />
        </mxCell>
        <mxCell id="V5TbLCFQxRqEsvW2R4SY-15" value="Mapping function" style="text;html=1;align=center;verticalAlign=middle;whiteSpace=wrap;rounded=0;fontStyle=1;fontSize=11;" parent="1" vertex="1">
          <mxGeometry x="3812" y="779" width="60" height="30" as="geometry" />
        </mxCell>
        <mxCell id="i1AqGhLAEsl7RgXJ8fc_-1" value="User Apply&lt;div&gt;configurations&lt;/div&gt;" style="shape=umlFrame;whiteSpace=wrap;html=1;pointerEvents=0;width=90;height=30;fillColor=#f5f5f5;fontColor=#333333;strokeColor=#666666;" parent="1" vertex="1">
          <mxGeometry x="957" y="262.5" width="763" height="357.5" as="geometry" />
        </mxCell>
        <mxCell id="i1AqGhLAEsl7RgXJ8fc_-2" value="Front-end" style="shape=umlLifeline;perimeter=lifelinePerimeter;whiteSpace=wrap;html=1;container=1;dropTarget=0;collapsible=0;recursiveResize=0;outlineConnect=0;portConstraint=eastwest;newEdgeStyle={&quot;curved&quot;:0,&quot;rounded&quot;:0};fillColor=#dae8fc;strokeColor=#6c8ebf;" parent="1" vertex="1">
          <mxGeometry x="1062" y="187.5" width="100" height="452.5" as="geometry" />
        </mxCell>
        <mxCell id="i1AqGhLAEsl7RgXJ8fc_-3" value="" style="html=1;points=[[0,0,0,0,5],[0,1,0,0,-5],[1,0,0,0,5],[1,1,0,0,-5]];perimeter=orthogonalPerimeter;outlineConnect=0;targetShapes=umlLifeline;portConstraint=eastwest;newEdgeStyle={&quot;curved&quot;:0,&quot;rounded&quot;:0};fillColor=#ffe6cc;strokeColor=#d79b00;" parent="i1AqGhLAEsl7RgXJ8fc_-2" vertex="1">
          <mxGeometry x="45" y="60" width="10" height="380" as="geometry" />
        </mxCell>
        <mxCell id="i1AqGhLAEsl7RgXJ8fc_-4" value="Alert error" style="edgeStyle=orthogonalEdgeStyle;rounded=0;orthogonalLoop=1;jettySize=auto;html=1;curved=0;" parent="i1AqGhLAEsl7RgXJ8fc_-2" edge="1">
          <mxGeometry relative="1" as="geometry">
            <mxPoint x="45" y="303.01428571428573" as="sourcePoint" />
            <mxPoint x="45" y="333.01428571428573" as="targetPoint" />
            <Array as="points">
              <mxPoint x="5" y="303" />
              <mxPoint x="5" y="333" />
            </Array>
            <mxPoint as="offset" />
          </mxGeometry>
        </mxCell>
        <mxCell id="sSDNLOhi34IHWkg_GrEN-7" value="Pending&lt;div&gt;update&lt;/div&gt;" style="endArrow=classic;html=1;rounded=0;dashed=1;strokeWidth=2;" edge="1" parent="i1AqGhLAEsl7RgXJ8fc_-2" source="i1AqGhLAEsl7RgXJ8fc_-3" target="i1AqGhLAEsl7RgXJ8fc_-3">
          <mxGeometry width="50" height="50" relative="1" as="geometry">
            <mxPoint x="-30" y="239" as="sourcePoint" />
            <mxPoint x="20" y="189" as="targetPoint" />
            <Array as="points">
              <mxPoint y="95" />
              <mxPoint y="262.5" />
            </Array>
          </mxGeometry>
        </mxCell>
        <mxCell id="sSDNLOhi34IHWkg_GrEN-10" value="Store &amp;amp;&lt;div&gt;fill data&lt;/div&gt;" style="edgeStyle=orthogonalEdgeStyle;rounded=0;orthogonalLoop=1;jettySize=auto;html=1;curved=0;" edge="1" parent="i1AqGhLAEsl7RgXJ8fc_-2">
          <mxGeometry relative="1" as="geometry">
            <mxPoint x="45" y="373.01428571428573" as="sourcePoint" />
            <mxPoint x="45" y="413.01428571428573" as="targetPoint" />
            <Array as="points">
              <mxPoint x="3" y="373" />
              <mxPoint x="3" y="413" />
            </Array>
            <mxPoint as="offset" />
          </mxGeometry>
        </mxCell>
        <mxCell id="i1AqGhLAEsl7RgXJ8fc_-5" value="Web-Backend" style="shape=umlLifeline;perimeter=lifelinePerimeter;whiteSpace=wrap;html=1;container=1;dropTarget=0;collapsible=0;recursiveResize=0;outlineConnect=0;portConstraint=eastwest;newEdgeStyle={&quot;curved&quot;:0,&quot;rounded&quot;:0};fillColor=#dae8fc;strokeColor=#6c8ebf;" parent="1" vertex="1">
          <mxGeometry x="1240" y="187.5" width="100" height="452.5" as="geometry" />
        </mxCell>
        <mxCell id="i1AqGhLAEsl7RgXJ8fc_-6" value="" style="html=1;points=[[0,0,0,0,5],[0,1,0,0,-5],[1,0,0,0,5],[1,1,0,0,-5]];perimeter=orthogonalPerimeter;outlineConnect=0;targetShapes=umlLifeline;portConstraint=eastwest;newEdgeStyle={&quot;curved&quot;:0,&quot;rounded&quot;:0};fillColor=#ffe6cc;strokeColor=#d79b00;" parent="i1AqGhLAEsl7RgXJ8fc_-5" vertex="1">
          <mxGeometry x="45" y="60" width="10" height="380" as="geometry" />
        </mxCell>
        <mxCell id="i1AqGhLAEsl7RgXJ8fc_-7" value="Mapping to&lt;div&gt;data model&lt;/div&gt;" style="edgeStyle=orthogonalEdgeStyle;rounded=0;orthogonalLoop=1;jettySize=auto;html=1;curved=0;strokeWidth=2;" parent="i1AqGhLAEsl7RgXJ8fc_-5" source="i1AqGhLAEsl7RgXJ8fc_-6" target="i1AqGhLAEsl7RgXJ8fc_-6" edge="1">
          <mxGeometry x="-0.0401" relative="1" as="geometry">
            <mxPoint x="55" y="118.5" as="sourcePoint" />
            <mxPoint x="55" y="138.5" as="targetPoint" />
            <Array as="points">
              <mxPoint x="100" y="105" />
              <mxPoint x="100" y="151" />
            </Array>
            <mxPoint as="offset" />
          </mxGeometry>
        </mxCell>
        <mxCell id="i1AqGhLAEsl7RgXJ8fc_-9" value="genieacs-sim&lt;br&gt;module" style="shape=umlLifeline;perimeter=lifelinePerimeter;whiteSpace=wrap;html=1;container=1;dropTarget=0;collapsible=0;recursiveResize=0;outlineConnect=0;portConstraint=eastwest;newEdgeStyle={&quot;curved&quot;:0,&quot;rounded&quot;:0};fillColor=#dae8fc;strokeColor=#6c8ebf;" parent="1" vertex="1">
          <mxGeometry x="1445" y="187.5" width="100" height="452.5" as="geometry" />
        </mxCell>
        <mxCell id="i1AqGhLAEsl7RgXJ8fc_-10" value="" style="html=1;points=[[0,0,0,0,5],[0,1,0,0,-5],[1,0,0,0,5],[1,1,0,0,-5]];perimeter=orthogonalPerimeter;outlineConnect=0;targetShapes=umlLifeline;portConstraint=eastwest;newEdgeStyle={&quot;curved&quot;:0,&quot;rounded&quot;:0};fillColor=#ffe6cc;strokeColor=#d79b00;" parent="i1AqGhLAEsl7RgXJ8fc_-9" vertex="1">
          <mxGeometry x="45" y="60" width="10" height="380" as="geometry" />
        </mxCell>
        <mxCell id="i1AqGhLAEsl7RgXJ8fc_-11" value="ACS Server" style="shape=umlLifeline;perimeter=lifelinePerimeter;whiteSpace=wrap;html=1;container=1;dropTarget=0;collapsible=0;recursiveResize=0;outlineConnect=0;portConstraint=eastwest;newEdgeStyle={&quot;curved&quot;:0,&quot;rounded&quot;:0};fillColor=#dae8fc;strokeColor=#6c8ebf;" parent="1" vertex="1">
          <mxGeometry x="1610" y="187.5" width="100" height="452.5" as="geometry" />
        </mxCell>
        <mxCell id="i1AqGhLAEsl7RgXJ8fc_-12" value="" style="html=1;points=[[0,0,0,0,5],[0,1,0,0,-5],[1,0,0,0,5],[1,1,0,0,-5]];perimeter=orthogonalPerimeter;outlineConnect=0;targetShapes=umlLifeline;portConstraint=eastwest;newEdgeStyle={&quot;curved&quot;:0,&quot;rounded&quot;:0};fillColor=#ffe6cc;strokeColor=#d79b00;" parent="i1AqGhLAEsl7RgXJ8fc_-11" vertex="1">
          <mxGeometry x="45" y="60" width="10" height="380" as="geometry" />
        </mxCell>
        <mxCell id="i1AqGhLAEsl7RgXJ8fc_-13" value="HTTP POST Request" style="edgeStyle=orthogonalEdgeStyle;rounded=0;orthogonalLoop=1;jettySize=auto;html=1;curved=0;strokeWidth=2;" parent="1" source="i1AqGhLAEsl7RgXJ8fc_-3" target="i1AqGhLAEsl7RgXJ8fc_-6" edge="1">
          <mxGeometry relative="1" as="geometry">
            <Array as="points">
              <mxPoint x="1227" y="282.5" />
              <mxPoint x="1227" y="282.5" />
            </Array>
            <mxPoint as="offset" />
          </mxGeometry>
        </mxCell>
        <mxCell id="i1AqGhLAEsl7RgXJ8fc_-14" value="Response" style="edgeStyle=orthogonalEdgeStyle;rounded=0;orthogonalLoop=1;jettySize=auto;html=1;curved=0;strokeWidth=2;" parent="1" source="i1AqGhLAEsl7RgXJ8fc_-6" target="i1AqGhLAEsl7RgXJ8fc_-3" edge="1">
          <mxGeometry relative="1" as="geometry">
            <Array as="points">
              <mxPoint x="1210" y="450" />
              <mxPoint x="1210" y="450" />
            </Array>
          </mxGeometry>
        </mxCell>
        <mxCell id="i1AqGhLAEsl7RgXJ8fc_-15" value="database" style="shape=note;whiteSpace=wrap;html=1;backgroundOutline=1;darkOpacity=0.05;fillColor=#dae8fc;strokeColor=#6c8ebf;" parent="1" vertex="1">
          <mxGeometry x="1370" y="350" width="69" height="81.5" as="geometry" />
        </mxCell>
        <mxCell id="i1AqGhLAEsl7RgXJ8fc_-16" value="Set&lt;br&gt;Get" style="edgeStyle=orthogonalEdgeStyle;rounded=0;orthogonalLoop=1;jettySize=auto;html=1;curved=0;entryX=0;entryY=0.5;entryDx=0;entryDy=0;entryPerimeter=0;startArrow=classic;startFill=1;strokeWidth=2;" parent="1" source="i1AqGhLAEsl7RgXJ8fc_-6" edge="1">
          <mxGeometry relative="1" as="geometry">
            <Array as="points">
              <mxPoint x="1360" y="391.5" />
            </Array>
            <mxPoint x="1371" y="390.7500000000002" as="targetPoint" />
          </mxGeometry>
        </mxCell>
        <mxCell id="i1AqGhLAEsl7RgXJ8fc_-31" style="edgeStyle=orthogonalEdgeStyle;rounded=0;orthogonalLoop=1;jettySize=auto;html=1;entryX=0.5;entryY=0;entryDx=0;entryDy=0;" parent="1" source="i1AqGhLAEsl7RgXJ8fc_-17" target="i1AqGhLAEsl7RgXJ8fc_-23" edge="1">
          <mxGeometry relative="1" as="geometry">
            <Array as="points">
              <mxPoint x="3900" y="1300" />
              <mxPoint x="3822" y="1300" />
            </Array>
          </mxGeometry>
        </mxCell>
        <mxCell id="i1AqGhLAEsl7RgXJ8fc_-32" style="edgeStyle=orthogonalEdgeStyle;rounded=0;orthogonalLoop=1;jettySize=auto;html=1;entryX=0.5;entryY=0;entryDx=0;entryDy=0;" parent="1" source="i1AqGhLAEsl7RgXJ8fc_-17" target="i1AqGhLAEsl7RgXJ8fc_-21" edge="1">
          <mxGeometry relative="1" as="geometry">
            <Array as="points">
              <mxPoint x="3900" y="1300" />
              <mxPoint x="3980" y="1300" />
            </Array>
          </mxGeometry>
        </mxCell>
        <mxCell id="i1AqGhLAEsl7RgXJ8fc_-33" style="edgeStyle=orthogonalEdgeStyle;rounded=0;orthogonalLoop=1;jettySize=auto;html=1;entryX=0.5;entryY=0;entryDx=0;entryDy=0;" parent="1" source="i1AqGhLAEsl7RgXJ8fc_-17" target="i1AqGhLAEsl7RgXJ8fc_-19" edge="1">
          <mxGeometry relative="1" as="geometry">
            <Array as="points">
              <mxPoint x="3900" y="1300" />
              <mxPoint x="3690" y="1300" />
            </Array>
          </mxGeometry>
        </mxCell>
        <mxCell id="i1AqGhLAEsl7RgXJ8fc_-34" style="edgeStyle=orthogonalEdgeStyle;rounded=0;orthogonalLoop=1;jettySize=auto;html=1;entryX=0.5;entryY=0;entryDx=0;entryDy=0;" parent="1" source="i1AqGhLAEsl7RgXJ8fc_-17" target="i1AqGhLAEsl7RgXJ8fc_-22" edge="1">
          <mxGeometry relative="1" as="geometry">
            <Array as="points">
              <mxPoint x="3900" y="1300" />
              <mxPoint x="3560" y="1300" />
            </Array>
          </mxGeometry>
        </mxCell>
        <mxCell id="i1AqGhLAEsl7RgXJ8fc_-35" style="edgeStyle=orthogonalEdgeStyle;rounded=0;orthogonalLoop=1;jettySize=auto;html=1;entryX=0.5;entryY=0;entryDx=0;entryDy=0;" parent="1" source="i1AqGhLAEsl7RgXJ8fc_-17" target="i1AqGhLAEsl7RgXJ8fc_-18" edge="1">
          <mxGeometry relative="1" as="geometry">
            <Array as="points">
              <mxPoint x="3900" y="1300" />
              <mxPoint x="4108" y="1300" />
            </Array>
          </mxGeometry>
        </mxCell>
        <mxCell id="i1AqGhLAEsl7RgXJ8fc_-36" style="edgeStyle=orthogonalEdgeStyle;rounded=0;orthogonalLoop=1;jettySize=auto;html=1;entryX=0.5;entryY=0;entryDx=0;entryDy=0;" parent="1" source="i1AqGhLAEsl7RgXJ8fc_-17" target="i1AqGhLAEsl7RgXJ8fc_-20" edge="1">
          <mxGeometry relative="1" as="geometry">
            <Array as="points">
              <mxPoint x="3900" y="1300" />
              <mxPoint x="4240" y="1300" />
            </Array>
          </mxGeometry>
        </mxCell>
        <mxCell id="i1AqGhLAEsl7RgXJ8fc_-17" value="Backend" style="rounded=0;whiteSpace=wrap;html=1;" parent="1" vertex="1">
          <mxGeometry x="3840" y="1210" width="120" height="60" as="geometry" />
        </mxCell>
        <mxCell id="i1AqGhLAEsl7RgXJ8fc_-18" value="database" style="rounded=0;whiteSpace=wrap;html=1;" parent="1" vertex="1">
          <mxGeometry x="4048" y="1340" width="120" height="60" as="geometry" />
        </mxCell>
        <mxCell id="i1AqGhLAEsl7RgXJ8fc_-19" value="helper" style="rounded=0;whiteSpace=wrap;html=1;" parent="1" vertex="1">
          <mxGeometry x="3630" y="1340" width="120" height="60" as="geometry" />
        </mxCell>
        <mxCell id="i1AqGhLAEsl7RgXJ8fc_-20" value="genieacs-sim" style="rounded=0;whiteSpace=wrap;html=1;" parent="1" vertex="1">
          <mxGeometry x="4180" y="1340" width="120" height="60" as="geometry" />
        </mxCell>
        <mxCell id="i1AqGhLAEsl7RgXJ8fc_-21" value="dbService.js" style="rounded=0;whiteSpace=wrap;html=1;" parent="1" vertex="1">
          <mxGeometry x="3920" y="1340" width="120" height="60" as="geometry" />
        </mxCell>
        <mxCell id="i1AqGhLAEsl7RgXJ8fc_-22" value="utils.js" style="rounded=0;whiteSpace=wrap;html=1;" parent="1" vertex="1">
          <mxGeometry x="3500" y="1340" width="120" height="60" as="geometry" />
        </mxCell>
        <mxCell id="i1AqGhLAEsl7RgXJ8fc_-23" value="server.js" style="rounded=0;whiteSpace=wrap;html=1;" parent="1" vertex="1">
          <mxGeometry x="3762" y="1340" width="120" height="60" as="geometry" />
        </mxCell>
        <mxCell id="i1AqGhLAEsl7RgXJ8fc_-48" style="edgeStyle=orthogonalEdgeStyle;rounded=0;orthogonalLoop=1;jettySize=auto;html=1;entryX=0.5;entryY=0;entryDx=0;entryDy=0;" parent="1" source="i1AqGhLAEsl7RgXJ8fc_-24" target="i1AqGhLAEsl7RgXJ8fc_-38" edge="1">
          <mxGeometry relative="1" as="geometry">
            <Array as="points">
              <mxPoint x="3660" y="1640" />
              <mxPoint x="3592" y="1640" />
            </Array>
          </mxGeometry>
        </mxCell>
        <mxCell id="i1AqGhLAEsl7RgXJ8fc_-49" style="edgeStyle=orthogonalEdgeStyle;rounded=0;orthogonalLoop=1;jettySize=auto;html=1;entryX=0.5;entryY=0;entryDx=0;entryDy=0;" parent="1" source="i1AqGhLAEsl7RgXJ8fc_-24" target="i1AqGhLAEsl7RgXJ8fc_-39" edge="1">
          <mxGeometry relative="1" as="geometry">
            <Array as="points">
              <mxPoint x="3660" y="1640" />
              <mxPoint x="3720" y="1640" />
            </Array>
          </mxGeometry>
        </mxCell>
        <mxCell id="i1AqGhLAEsl7RgXJ8fc_-50" style="edgeStyle=orthogonalEdgeStyle;rounded=0;orthogonalLoop=1;jettySize=auto;html=1;entryX=0.5;entryY=0;entryDx=0;entryDy=0;" parent="1" source="i1AqGhLAEsl7RgXJ8fc_-24" target="i1AqGhLAEsl7RgXJ8fc_-40" edge="1">
          <mxGeometry relative="1" as="geometry">
            <Array as="points">
              <mxPoint x="3660" y="1640" />
              <mxPoint x="3850" y="1640" />
            </Array>
          </mxGeometry>
        </mxCell>
        <mxCell id="i1AqGhLAEsl7RgXJ8fc_-51" style="edgeStyle=orthogonalEdgeStyle;rounded=0;orthogonalLoop=1;jettySize=auto;html=1;entryX=0.5;entryY=0;entryDx=0;entryDy=0;" parent="1" source="i1AqGhLAEsl7RgXJ8fc_-24" target="i1AqGhLAEsl7RgXJ8fc_-37" edge="1">
          <mxGeometry relative="1" as="geometry">
            <Array as="points">
              <mxPoint x="3660" y="1640" />
              <mxPoint x="3460" y="1640" />
            </Array>
          </mxGeometry>
        </mxCell>
        <mxCell id="i1AqGhLAEsl7RgXJ8fc_-24" value="helper" style="rounded=0;whiteSpace=wrap;html=1;" parent="1" vertex="1">
          <mxGeometry x="3600" y="1555" width="120" height="60" as="geometry" />
        </mxCell>
        <mxCell id="i1AqGhLAEsl7RgXJ8fc_-56" value="" style="edgeStyle=orthogonalEdgeStyle;rounded=0;orthogonalLoop=1;jettySize=auto;html=1;" parent="1" source="i1AqGhLAEsl7RgXJ8fc_-25" target="i1AqGhLAEsl7RgXJ8fc_-27" edge="1">
          <mxGeometry relative="1" as="geometry" />
        </mxCell>
        <mxCell id="i1AqGhLAEsl7RgXJ8fc_-25" value="Front end" style="rounded=0;whiteSpace=wrap;html=1;" parent="1" vertex="1">
          <mxGeometry x="4566" y="1198" width="120" height="60" as="geometry" />
        </mxCell>
        <mxCell id="i1AqGhLAEsl7RgXJ8fc_-26" value="httpService.js" style="rounded=0;whiteSpace=wrap;html=1;" parent="1" vertex="1">
          <mxGeometry x="4500" y="1400" width="120" height="60" as="geometry" />
        </mxCell>
        <mxCell id="i1AqGhLAEsl7RgXJ8fc_-57" style="edgeStyle=orthogonalEdgeStyle;rounded=0;orthogonalLoop=1;jettySize=auto;html=1;entryX=0.5;entryY=0;entryDx=0;entryDy=0;" parent="1" source="i1AqGhLAEsl7RgXJ8fc_-27" target="i1AqGhLAEsl7RgXJ8fc_-26" edge="1">
          <mxGeometry relative="1" as="geometry" />
        </mxCell>
        <mxCell id="i1AqGhLAEsl7RgXJ8fc_-27" value="service" style="rounded=0;whiteSpace=wrap;html=1;" parent="1" vertex="1">
          <mxGeometry x="4566" y="1281.5" width="120" height="60" as="geometry" />
        </mxCell>
        <mxCell id="i1AqGhLAEsl7RgXJ8fc_-37" value="mapping" style="rounded=0;whiteSpace=wrap;html=1;" parent="1" vertex="1">
          <mxGeometry x="3400" y="1670" width="120" height="60" as="geometry" />
        </mxCell>
        <mxCell id="i1AqGhLAEsl7RgXJ8fc_-38" value="csv-parser.js" style="rounded=0;whiteSpace=wrap;html=1;" parent="1" vertex="1">
          <mxGeometry x="3532" y="1670" width="120" height="60" as="geometry" />
        </mxCell>
        <mxCell id="i1AqGhLAEsl7RgXJ8fc_-39" value="xml-parser.js" style="rounded=0;whiteSpace=wrap;html=1;" parent="1" vertex="1">
          <mxGeometry x="3660" y="1670" width="120" height="60" as="geometry" />
        </mxCell>
        <mxCell id="i1AqGhLAEsl7RgXJ8fc_-40" value="xml-utils.js" style="rounded=0;whiteSpace=wrap;html=1;" parent="1" vertex="1">
          <mxGeometry x="3790" y="1670" width="120" height="60" as="geometry" />
        </mxCell>
        <mxCell id="i1AqGhLAEsl7RgXJ8fc_-52" style="edgeStyle=orthogonalEdgeStyle;rounded=0;orthogonalLoop=1;jettySize=auto;html=1;entryX=0.5;entryY=0;entryDx=0;entryDy=0;" parent="1" source="i1AqGhLAEsl7RgXJ8fc_-41" target="i1AqGhLAEsl7RgXJ8fc_-43" edge="1">
          <mxGeometry relative="1" as="geometry">
            <Array as="points">
              <mxPoint x="4112" y="1640" />
              <mxPoint x="4050" y="1640" />
            </Array>
          </mxGeometry>
        </mxCell>
        <mxCell id="i1AqGhLAEsl7RgXJ8fc_-53" style="edgeStyle=orthogonalEdgeStyle;rounded=0;orthogonalLoop=1;jettySize=auto;html=1;entryX=0.5;entryY=0;entryDx=0;entryDy=0;" parent="1" source="i1AqGhLAEsl7RgXJ8fc_-41" target="i1AqGhLAEsl7RgXJ8fc_-42" edge="1">
          <mxGeometry relative="1" as="geometry">
            <Array as="points">
              <mxPoint x="4112" y="1640" />
              <mxPoint x="4180" y="1640" />
            </Array>
          </mxGeometry>
        </mxCell>
        <mxCell id="i1AqGhLAEsl7RgXJ8fc_-41" value="genieacs-sim" style="rounded=0;whiteSpace=wrap;html=1;" parent="1" vertex="1">
          <mxGeometry x="4052" y="1555" width="120" height="60" as="geometry" />
        </mxCell>
        <mxCell id="i1AqGhLAEsl7RgXJ8fc_-42" value="simulator.js" style="rounded=0;whiteSpace=wrap;html=1;" parent="1" vertex="1">
          <mxGeometry x="4120" y="1670" width="120" height="60" as="geometry" />
        </mxCell>
        <mxCell id="i1AqGhLAEsl7RgXJ8fc_-43" value="methods&lt;span style=&quot;background-color: initial;&quot;&gt;.js&lt;/span&gt;" style="rounded=0;whiteSpace=wrap;html=1;" parent="1" vertex="1">
          <mxGeometry x="3990" y="1670" width="120" height="60" as="geometry" />
        </mxCell>
        <mxCell id="i1AqGhLAEsl7RgXJ8fc_-44" value="db_data_model.db" style="rounded=0;whiteSpace=wrap;html=1;" parent="1" vertex="1">
          <mxGeometry x="4490" y="1664" width="150" height="60" as="geometry" />
        </mxCell>
        <mxCell id="i1AqGhLAEsl7RgXJ8fc_-45" value="Data_Model_Gemtek.csv" style="rounded=0;whiteSpace=wrap;html=1;" parent="1" vertex="1">
          <mxGeometry x="4320" y="1664" width="150" height="60" as="geometry" />
        </mxCell>
        <mxCell id="i1AqGhLAEsl7RgXJ8fc_-54" style="edgeStyle=orthogonalEdgeStyle;rounded=0;orthogonalLoop=1;jettySize=auto;html=1;entryX=0.5;entryY=0;entryDx=0;entryDy=0;" parent="1" source="i1AqGhLAEsl7RgXJ8fc_-46" target="i1AqGhLAEsl7RgXJ8fc_-45" edge="1">
          <mxGeometry relative="1" as="geometry">
            <Array as="points">
              <mxPoint x="4480" y="1630" />
              <mxPoint x="4395" y="1630" />
            </Array>
          </mxGeometry>
        </mxCell>
        <mxCell id="i1AqGhLAEsl7RgXJ8fc_-55" style="edgeStyle=orthogonalEdgeStyle;rounded=0;orthogonalLoop=1;jettySize=auto;html=1;entryX=0.5;entryY=0;entryDx=0;entryDy=0;" parent="1" source="i1AqGhLAEsl7RgXJ8fc_-46" target="i1AqGhLAEsl7RgXJ8fc_-44" edge="1">
          <mxGeometry relative="1" as="geometry">
            <Array as="points">
              <mxPoint x="4480" y="1630" />
              <mxPoint x="4565" y="1630" />
            </Array>
          </mxGeometry>
        </mxCell>
        <mxCell id="i1AqGhLAEsl7RgXJ8fc_-46" value="database" style="rounded=0;whiteSpace=wrap;html=1;" parent="1" vertex="1">
          <mxGeometry x="4420" y="1550" width="120" height="60" as="geometry" />
        </mxCell>
        <mxCell id="i1AqGhLAEsl7RgXJ8fc_-47" value="utils.js" style="rounded=0;whiteSpace=wrap;html=1;" parent="1" vertex="1">
          <mxGeometry x="4630" y="1400" width="120" height="60" as="geometry" />
        </mxCell>
        <mxCell id="i1AqGhLAEsl7RgXJ8fc_-58" style="edgeStyle=orthogonalEdgeStyle;rounded=0;orthogonalLoop=1;jettySize=auto;html=1;entryX=0.525;entryY=0.017;entryDx=0;entryDy=0;entryPerimeter=0;" parent="1" source="i1AqGhLAEsl7RgXJ8fc_-27" target="i1AqGhLAEsl7RgXJ8fc_-47" edge="1">
          <mxGeometry relative="1" as="geometry" />
        </mxCell>
        <mxCell id="i1AqGhLAEsl7RgXJ8fc_-85" value="" style="edgeStyle=orthogonalEdgeStyle;rounded=0;orthogonalLoop=1;jettySize=auto;html=1;strokeWidth=2;" parent="1" source="i1AqGhLAEsl7RgXJ8fc_-59" target="i1AqGhLAEsl7RgXJ8fc_-60" edge="1">
          <mxGeometry relative="1" as="geometry" />
        </mxCell>
        <mxCell id="i1AqGhLAEsl7RgXJ8fc_-59" value="User action" style="html=1;whiteSpace=wrap;" parent="1" vertex="1">
          <mxGeometry x="5240" y="40" width="110" height="50" as="geometry" />
        </mxCell>
        <mxCell id="i1AqGhLAEsl7RgXJ8fc_-86" value="" style="edgeStyle=orthogonalEdgeStyle;rounded=0;orthogonalLoop=1;jettySize=auto;html=1;strokeWidth=2;" parent="1" source="i1AqGhLAEsl7RgXJ8fc_-60" target="i1AqGhLAEsl7RgXJ8fc_-61" edge="1">
          <mxGeometry relative="1" as="geometry" />
        </mxCell>
        <mxCell id="i1AqGhLAEsl7RgXJ8fc_-60" value="httpService&lt;div&gt;send_&amp;lt;&amp;gt;_request&lt;/div&gt;" style="html=1;whiteSpace=wrap;" parent="1" vertex="1">
          <mxGeometry x="5240" y="130" width="110" height="50" as="geometry" />
        </mxCell>
        <mxCell id="i1AqGhLAEsl7RgXJ8fc_-87" value="" style="edgeStyle=orthogonalEdgeStyle;rounded=0;orthogonalLoop=1;jettySize=auto;html=1;strokeWidth=2;" parent="1" source="i1AqGhLAEsl7RgXJ8fc_-61" target="i1AqGhLAEsl7RgXJ8fc_-62" edge="1">
          <mxGeometry relative="1" as="geometry" />
        </mxCell>
        <mxCell id="i1AqGhLAEsl7RgXJ8fc_-61" value="create&amp;lt;&amp;gt;request" style="html=1;whiteSpace=wrap;" parent="1" vertex="1">
          <mxGeometry x="5240" y="215" width="110" height="50" as="geometry" />
        </mxCell>
        <mxCell id="i1AqGhLAEsl7RgXJ8fc_-88" value="" style="edgeStyle=orthogonalEdgeStyle;rounded=0;orthogonalLoop=1;jettySize=auto;html=1;strokeWidth=2;" parent="1" source="i1AqGhLAEsl7RgXJ8fc_-62" target="i1AqGhLAEsl7RgXJ8fc_-66" edge="1">
          <mxGeometry relative="1" as="geometry" />
        </mxCell>
        <mxCell id="i1AqGhLAEsl7RgXJ8fc_-62" value="Rereieve data" style="html=1;whiteSpace=wrap;" parent="1" vertex="1">
          <mxGeometry x="5400" y="215" width="110" height="50" as="geometry" />
        </mxCell>
        <mxCell id="i1AqGhLAEsl7RgXJ8fc_-63" value="Store to&amp;nbsp;&lt;div&gt;Local Storage&lt;/div&gt;" style="html=1;whiteSpace=wrap;" parent="1" vertex="1">
          <mxGeometry x="5240" y="440" width="110" height="50" as="geometry" />
        </mxCell>
        <mxCell id="i1AqGhLAEsl7RgXJ8fc_-64" value="Alert error" style="html=1;whiteSpace=wrap;" parent="1" vertex="1">
          <mxGeometry x="5080" y="325" width="110" height="50" as="geometry" />
        </mxCell>
        <mxCell id="i1AqGhLAEsl7RgXJ8fc_-100" value="Client bad request 400" style="edgeStyle=orthogonalEdgeStyle;rounded=0;orthogonalLoop=1;jettySize=auto;html=1;fillColor=#f8cecc;strokeColor=#b85450;strokeWidth=2;" parent="1" source="i1AqGhLAEsl7RgXJ8fc_-65" target="i1AqGhLAEsl7RgXJ8fc_-83" edge="1">
          <mxGeometry x="0.4437" relative="1" as="geometry">
            <Array as="points">
              <mxPoint x="6260" y="495" />
              <mxPoint x="6260" y="610" />
            </Array>
            <mxPoint as="offset" />
          </mxGeometry>
        </mxCell>
        <mxCell id="i1AqGhLAEsl7RgXJ8fc_-65" value="unavailable command" style="html=1;whiteSpace=wrap;" parent="1" vertex="1">
          <mxGeometry x="5920" y="470" width="110" height="50" as="geometry" />
        </mxCell>
        <mxCell id="i1AqGhLAEsl7RgXJ8fc_-89" value="" style="edgeStyle=orthogonalEdgeStyle;rounded=0;orthogonalLoop=1;jettySize=auto;html=1;strokeWidth=2;" parent="1" source="i1AqGhLAEsl7RgXJ8fc_-66" target="i1AqGhLAEsl7RgXJ8fc_-67" edge="1">
          <mxGeometry relative="1" as="geometry" />
        </mxCell>
        <mxCell id="i1AqGhLAEsl7RgXJ8fc_-66" value="Mapping&amp;nbsp;&lt;div&gt;data model&lt;/div&gt;" style="html=1;whiteSpace=wrap;" parent="1" vertex="1">
          <mxGeometry x="5560" y="215" width="110" height="50" as="geometry" />
        </mxCell>
        <mxCell id="i1AqGhLAEsl7RgXJ8fc_-90" value="" style="edgeStyle=orthogonalEdgeStyle;rounded=0;orthogonalLoop=1;jettySize=auto;html=1;strokeWidth=2;" parent="1" source="i1AqGhLAEsl7RgXJ8fc_-67" target="i1AqGhLAEsl7RgXJ8fc_-68" edge="1">
          <mxGeometry relative="1" as="geometry" />
        </mxCell>
        <mxCell id="i1AqGhLAEsl7RgXJ8fc_-67" value="setValue&lt;div&gt;to database&lt;/div&gt;" style="html=1;whiteSpace=wrap;" parent="1" vertex="1">
          <mxGeometry x="5720" y="215" width="110" height="50" as="geometry" />
        </mxCell>
        <mxCell id="i1AqGhLAEsl7RgXJ8fc_-91" style="edgeStyle=orthogonalEdgeStyle;rounded=0;orthogonalLoop=1;jettySize=auto;html=1;strokeWidth=2;" parent="1" source="i1AqGhLAEsl7RgXJ8fc_-68" target="i1AqGhLAEsl7RgXJ8fc_-84" edge="1">
          <mxGeometry relative="1" as="geometry" />
        </mxCell>
        <mxCell id="i1AqGhLAEsl7RgXJ8fc_-68" value="do command action" style="html=1;whiteSpace=wrap;" parent="1" vertex="1">
          <mxGeometry x="5720" y="300" width="110" height="50" as="geometry" />
        </mxCell>
        <mxCell id="i1AqGhLAEsl7RgXJ8fc_-104" value="OK" style="edgeStyle=orthogonalEdgeStyle;rounded=0;orthogonalLoop=1;jettySize=auto;html=1;strokeWidth=2;fillColor=#d5e8d4;strokeColor=#82b366;" parent="1" source="i1AqGhLAEsl7RgXJ8fc_-70" target="i1AqGhLAEsl7RgXJ8fc_-63" edge="1">
          <mxGeometry x="-0.2" relative="1" as="geometry">
            <mxPoint as="offset" />
          </mxGeometry>
        </mxCell>
        <mxCell id="i1AqGhLAEsl7RgXJ8fc_-105" value="!= OK" style="edgeStyle=orthogonalEdgeStyle;rounded=0;orthogonalLoop=1;jettySize=auto;html=1;strokeWidth=2;fillColor=#f8cecc;strokeColor=#b85450;" parent="1" source="i1AqGhLAEsl7RgXJ8fc_-70" target="i1AqGhLAEsl7RgXJ8fc_-64" edge="1">
          <mxGeometry x="-0.0909" relative="1" as="geometry">
            <mxPoint as="offset" />
          </mxGeometry>
        </mxCell>
        <mxCell id="i1AqGhLAEsl7RgXJ8fc_-70" value="respone&lt;div&gt;success&lt;/div&gt;" style="rhombus;whiteSpace=wrap;html=1;" parent="1" vertex="1">
          <mxGeometry x="5255" y="310" width="80" height="80" as="geometry" />
        </mxCell>
        <mxCell id="i1AqGhLAEsl7RgXJ8fc_-71" value="user config data" style="html=1;whiteSpace=wrap;" parent="1" vertex="1">
          <mxGeometry x="5920" y="390" width="110" height="50" as="geometry" />
        </mxCell>
        <mxCell id="i1AqGhLAEsl7RgXJ8fc_-101" value="" style="edgeStyle=orthogonalEdgeStyle;rounded=0;orthogonalLoop=1;jettySize=auto;html=1;strokeWidth=2;" parent="1" source="i1AqGhLAEsl7RgXJ8fc_-72" target="i1AqGhLAEsl7RgXJ8fc_-78" edge="1">
          <mxGeometry relative="1" as="geometry" />
        </mxCell>
        <mxCell id="i1AqGhLAEsl7RgXJ8fc_-72" value="send inform actively" style="html=1;whiteSpace=wrap;" parent="1" vertex="1">
          <mxGeometry x="5920" y="315" width="110" height="50" as="geometry" />
        </mxCell>
        <mxCell id="i1AqGhLAEsl7RgXJ8fc_-96" value="" style="edgeStyle=orthogonalEdgeStyle;rounded=0;orthogonalLoop=1;jettySize=auto;html=1;strokeWidth=2;" parent="1" source="i1AqGhLAEsl7RgXJ8fc_-73" target="i1AqGhLAEsl7RgXJ8fc_-77" edge="1">
          <mxGeometry relative="1" as="geometry" />
        </mxCell>
        <mxCell id="i1AqGhLAEsl7RgXJ8fc_-73" value="Connect to ACS server" style="html=1;whiteSpace=wrap;" parent="1" vertex="1">
          <mxGeometry x="5920" y="240" width="110" height="50" as="geometry" />
        </mxCell>
        <mxCell id="i1AqGhLAEsl7RgXJ8fc_-103" style="edgeStyle=orthogonalEdgeStyle;rounded=0;orthogonalLoop=1;jettySize=auto;html=1;entryX=1;entryY=0.5;entryDx=0;entryDy=0;strokeWidth=2;" parent="1" source="i1AqGhLAEsl7RgXJ8fc_-75" target="i1AqGhLAEsl7RgXJ8fc_-70" edge="1">
          <mxGeometry relative="1" as="geometry" />
        </mxCell>
        <mxCell id="i1AqGhLAEsl7RgXJ8fc_-75" value="sendResponseToFE&lt;div&gt;response to Front end&lt;/div&gt;" style="html=1;whiteSpace=wrap;" parent="1" vertex="1">
          <mxGeometry x="5650" y="615" width="140" height="50" as="geometry" />
        </mxCell>
        <mxCell id="i1AqGhLAEsl7RgXJ8fc_-97" value="" style="edgeStyle=orthogonalEdgeStyle;rounded=0;orthogonalLoop=1;jettySize=auto;html=1;strokeWidth=2;" parent="1" source="i1AqGhLAEsl7RgXJ8fc_-77" target="i1AqGhLAEsl7RgXJ8fc_-82" edge="1">
          <mxGeometry relative="1" as="geometry" />
        </mxCell>
        <mxCell id="i1AqGhLAEsl7RgXJ8fc_-77" value="establish connection" style="html=1;whiteSpace=wrap;" parent="1" vertex="1">
          <mxGeometry x="6080" y="240" width="110" height="50" as="geometry" />
        </mxCell>
        <mxCell id="i1AqGhLAEsl7RgXJ8fc_-78" value="send inform&lt;div&gt;action&lt;/div&gt;" style="html=1;whiteSpace=wrap;fillColor=#fff2cc;strokeColor=#d6b656;" parent="1" vertex="1">
          <mxGeometry x="6080" y="315" width="110" height="50" as="geometry" />
        </mxCell>
        <mxCell id="i1AqGhLAEsl7RgXJ8fc_-98" value="Success: status 200" style="edgeStyle=orthogonalEdgeStyle;rounded=0;orthogonalLoop=1;jettySize=auto;html=1;fillColor=#d5e8d4;strokeColor=#82b366;strokeWidth=2;" parent="1" source="i1AqGhLAEsl7RgXJ8fc_-82" target="i1AqGhLAEsl7RgXJ8fc_-83" edge="1">
          <mxGeometry x="0.4395" relative="1" as="geometry">
            <Array as="points">
              <mxPoint x="6290" y="650" />
            </Array>
            <mxPoint as="offset" />
          </mxGeometry>
        </mxCell>
        <mxCell id="i1AqGhLAEsl7RgXJ8fc_-99" value="Fail: status 500" style="edgeStyle=orthogonalEdgeStyle;rounded=0;orthogonalLoop=1;jettySize=auto;html=1;fillColor=#f8cecc;strokeColor=#b85450;exitX=1;exitY=0.5;exitDx=0;exitDy=0;strokeWidth=2;" parent="1" source="i1AqGhLAEsl7RgXJ8fc_-82" target="i1AqGhLAEsl7RgXJ8fc_-83" edge="1">
          <mxGeometry x="0.5028" relative="1" as="geometry">
            <Array as="points">
              <mxPoint x="6330" y="670" />
            </Array>
            <mxPoint as="offset" />
          </mxGeometry>
        </mxCell>
        <mxCell id="i1AqGhLAEsl7RgXJ8fc_-82" value="connect&lt;div&gt;success&lt;/div&gt;" style="rhombus;whiteSpace=wrap;html=1;" parent="1" vertex="1">
          <mxGeometry x="6250" y="225" width="80" height="80" as="geometry" />
        </mxCell>
        <mxCell id="i1AqGhLAEsl7RgXJ8fc_-102" value="" style="edgeStyle=orthogonalEdgeStyle;rounded=0;orthogonalLoop=1;jettySize=auto;html=1;curved=0;strokeWidth=2;" parent="1" source="i1AqGhLAEsl7RgXJ8fc_-83" target="i1AqGhLAEsl7RgXJ8fc_-75" edge="1">
          <mxGeometry relative="1" as="geometry" />
        </mxCell>
        <mxCell id="i1AqGhLAEsl7RgXJ8fc_-83" value="" style="html=1;points=[[0,0,0,0,5],[0,1,0,0,-5],[1,0,0,0,5],[1,1,0,0,-5]];perimeter=orthogonalPerimeter;outlineConnect=0;targetShapes=umlLifeline;portConstraint=eastwest;newEdgeStyle={&quot;curved&quot;:0,&quot;rounded&quot;:0};direction=west;fillColor=#000000;" parent="1" vertex="1">
          <mxGeometry x="5840" y="600" width="10" height="80" as="geometry" />
        </mxCell>
        <mxCell id="i1AqGhLAEsl7RgXJ8fc_-92" style="edgeStyle=orthogonalEdgeStyle;rounded=0;orthogonalLoop=1;jettySize=auto;html=1;curved=0;entryX=0;entryY=0.5;entryDx=0;entryDy=0;strokeWidth=2;" parent="1" source="i1AqGhLAEsl7RgXJ8fc_-84" target="i1AqGhLAEsl7RgXJ8fc_-73" edge="1">
          <mxGeometry relative="1" as="geometry" />
        </mxCell>
        <mxCell id="i1AqGhLAEsl7RgXJ8fc_-93" style="edgeStyle=orthogonalEdgeStyle;rounded=0;orthogonalLoop=1;jettySize=auto;html=1;curved=0;entryX=0;entryY=0.5;entryDx=0;entryDy=0;strokeWidth=2;" parent="1" source="i1AqGhLAEsl7RgXJ8fc_-84" target="i1AqGhLAEsl7RgXJ8fc_-72" edge="1">
          <mxGeometry relative="1" as="geometry" />
        </mxCell>
        <mxCell id="i1AqGhLAEsl7RgXJ8fc_-94" style="edgeStyle=orthogonalEdgeStyle;rounded=0;orthogonalLoop=1;jettySize=auto;html=1;curved=0;entryX=0;entryY=0.5;entryDx=0;entryDy=0;strokeWidth=2;" parent="1" source="i1AqGhLAEsl7RgXJ8fc_-84" target="i1AqGhLAEsl7RgXJ8fc_-71" edge="1">
          <mxGeometry relative="1" as="geometry" />
        </mxCell>
        <mxCell id="i1AqGhLAEsl7RgXJ8fc_-95" style="edgeStyle=orthogonalEdgeStyle;rounded=0;orthogonalLoop=1;jettySize=auto;html=1;curved=0;entryX=0;entryY=0.5;entryDx=0;entryDy=0;strokeWidth=2;" parent="1" source="i1AqGhLAEsl7RgXJ8fc_-84" target="i1AqGhLAEsl7RgXJ8fc_-65" edge="1">
          <mxGeometry relative="1" as="geometry" />
        </mxCell>
        <mxCell id="i1AqGhLAEsl7RgXJ8fc_-84" value="" style="html=1;points=[[0,0,0,0,5],[0,1,0,0,-5],[1,0,0,0,5],[1,1,0,0,-5]];perimeter=orthogonalPerimeter;outlineConnect=0;targetShapes=umlLifeline;portConstraint=eastwest;newEdgeStyle={&quot;curved&quot;:0,&quot;rounded&quot;:0};fillColor=#000000;" parent="1" vertex="1">
          <mxGeometry x="5840" y="360" width="10" height="80" as="geometry" />
        </mxCell>
        <mxCell id="i1AqGhLAEsl7RgXJ8fc_-107" value="Backend" style="text;html=1;align=center;verticalAlign=middle;whiteSpace=wrap;rounded=0;fontSize=15;fontStyle=1" parent="1" vertex="1">
          <mxGeometry x="6310" y="710" width="70" height="30" as="geometry" />
        </mxCell>
        <mxCell id="i1AqGhLAEsl7RgXJ8fc_-109" value="Front end" style="text;html=1;align=center;verticalAlign=middle;whiteSpace=wrap;rounded=0;fontSize=15;fontStyle=1" parent="1" vertex="1">
          <mxGeometry x="5060" y="510" width="90" height="30" as="geometry" />
        </mxCell>
        <mxCell id="i1AqGhLAEsl7RgXJ8fc_-113" value="" style="rounded=0;whiteSpace=wrap;html=1;fillColor=#fff2cc;strokeColor=#d6b656;" parent="1" vertex="1">
          <mxGeometry x="5070" y="635" width="40" height="20" as="geometry" />
        </mxCell>
        <mxCell id="i1AqGhLAEsl7RgXJ8fc_-114" value="TODO" style="text;html=1;align=left;verticalAlign=middle;whiteSpace=wrap;rounded=0;" parent="1" vertex="1">
          <mxGeometry x="5130" y="630" width="60" height="30" as="geometry" />
        </mxCell>
        <mxCell id="i1AqGhLAEsl7RgXJ8fc_-115" value="" style="endArrow=classic;html=1;rounded=0;fillColor=#f8cecc;strokeColor=#b85450;" parent="1" edge="1">
          <mxGeometry width="50" height="50" relative="1" as="geometry">
            <mxPoint x="5070" y="680" as="sourcePoint" />
            <mxPoint x="5110" y="680" as="targetPoint" />
          </mxGeometry>
        </mxCell>
        <mxCell id="i1AqGhLAEsl7RgXJ8fc_-116" value="" style="endArrow=classic;html=1;rounded=0;fillColor=#d5e8d4;strokeColor=#82b366;" parent="1" edge="1">
          <mxGeometry width="50" height="50" relative="1" as="geometry">
            <mxPoint x="5070" y="709" as="sourcePoint" />
            <mxPoint x="5110" y="708.82" as="targetPoint" />
          </mxGeometry>
        </mxCell>
        <mxCell id="i1AqGhLAEsl7RgXJ8fc_-117" value="HTTP Error" style="text;html=1;align=left;verticalAlign=middle;whiteSpace=wrap;rounded=0;" parent="1" vertex="1">
          <mxGeometry x="5130" y="665" width="70" height="30" as="geometry" />
        </mxCell>
        <mxCell id="i1AqGhLAEsl7RgXJ8fc_-118" value="HTTP OK" style="text;html=1;align=left;verticalAlign=middle;whiteSpace=wrap;rounded=0;" parent="1" vertex="1">
          <mxGeometry x="5130" y="695" width="60" height="30" as="geometry" />
        </mxCell>
        <mxCell id="hdwY8uAqlynun0E91TMd-15" style="edgeStyle=orthogonalEdgeStyle;rounded=0;orthogonalLoop=1;jettySize=auto;html=1;entryX=0.5;entryY=0;entryDx=0;entryDy=0;strokeWidth=1;" parent="1" target="hdwY8uAqlynun0E91TMd-5" edge="1">
          <mxGeometry relative="1" as="geometry">
            <mxPoint x="5310" y="1612.6" as="sourcePoint" />
          </mxGeometry>
        </mxCell>
        <mxCell id="hdwY8uAqlynun0E91TMd-16" value="connect to ACS Server (HTTP)" style="edgeStyle=orthogonalEdgeStyle;rounded=0;orthogonalLoop=1;jettySize=auto;html=1;strokeWidth=2;fontSize=14;" parent="1" source="hdwY8uAqlynun0E91TMd-5" target="hdwY8uAqlynun0E91TMd-9" edge="1">
          <mxGeometry relative="1" as="geometry">
            <Array as="points">
              <mxPoint x="5310" y="1835" />
              <mxPoint x="5923" y="1835" />
            </Array>
          </mxGeometry>
        </mxCell>
        <mxCell id="hdwY8uAqlynun0E91TMd-5" value="gen Serial Number&lt;div style=&quot;font-size: 15px;&quot;&gt;&lt;b style=&quot;font-size: 15px;&quot;&gt;&quot;sim&amp;lt;random_number&amp;gt;&quot;&lt;/b&gt;&lt;/div&gt;" style="rounded=0;whiteSpace=wrap;html=1;fontSize=15;" parent="1" vertex="1">
          <mxGeometry x="5213.5" y="1705" width="193" height="60" as="geometry" />
        </mxCell>
        <mxCell id="hdwY8uAqlynun0E91TMd-10" value="Client Simulator&lt;div style=&quot;font-size: 16px;&quot;&gt;&lt;b style=&quot;font-size: 16px;&quot;&gt;localhost:8888&lt;/b&gt;&lt;/div&gt;" style="text;html=1;align=center;verticalAlign=middle;whiteSpace=wrap;rounded=0;fontSize=16;" parent="1" vertex="1">
          <mxGeometry x="5183.5" y="1198" width="253" height="30" as="geometry" />
        </mxCell>
        <mxCell id="hdwY8uAqlynun0E91TMd-11" value="ACS Server" style="text;html=1;align=center;verticalAlign=middle;whiteSpace=wrap;rounded=0;fontSize=16;" parent="1" vertex="1">
          <mxGeometry x="5873.5" y="1487.5" width="93" height="30" as="geometry" />
        </mxCell>
        <mxCell id="hdwY8uAqlynun0E91TMd-18" style="edgeStyle=orthogonalEdgeStyle;rounded=0;orthogonalLoop=1;jettySize=auto;html=1;entryX=0.5;entryY=0;entryDx=0;entryDy=0;" parent="1" target="hdwY8uAqlynun0E91TMd-7" edge="1">
          <mxGeometry relative="1" as="geometry">
            <mxPoint x="5677" y="1137" as="sourcePoint" />
          </mxGeometry>
        </mxCell>
        <mxCell id="hdwY8uAqlynun0E91TMd-22" style="edgeStyle=orthogonalEdgeStyle;rounded=0;orthogonalLoop=1;jettySize=auto;html=1;entryX=0;entryY=0.5;entryDx=0;entryDy=0;shape=link;" parent="1" source="hdwY8uAqlynun0E91TMd-19" target="hdwY8uAqlynun0E91TMd-20" edge="1">
          <mxGeometry relative="1" as="geometry" />
        </mxCell>
        <mxCell id="hdwY8uAqlynun0E91TMd-19" value="Virtual device" style="rounded=0;whiteSpace=wrap;html=1;" parent="1" vertex="1">
          <mxGeometry x="5238" y="2283" width="120" height="60" as="geometry" />
        </mxCell>
        <mxCell id="hdwY8uAqlynun0E91TMd-23" style="edgeStyle=orthogonalEdgeStyle;rounded=0;orthogonalLoop=1;jettySize=auto;html=1;entryX=0;entryY=0.5;entryDx=0;entryDy=0;shape=link;" parent="1" source="hdwY8uAqlynun0E91TMd-20" target="hdwY8uAqlynun0E91TMd-21" edge="1">
          <mxGeometry relative="1" as="geometry" />
        </mxCell>
        <mxCell id="hdwY8uAqlynun0E91TMd-20" value="Switch Cisco&lt;div&gt;Model: RG-ES108GD&lt;/div&gt;" style="rounded=0;whiteSpace=wrap;html=1;" parent="1" vertex="1">
          <mxGeometry x="5469" y="2283" width="127" height="60" as="geometry" />
        </mxCell>
        <mxCell id="hdwY8uAqlynun0E91TMd-21" value="ACS Server" style="rounded=0;whiteSpace=wrap;html=1;" parent="1" vertex="1">
          <mxGeometry x="5703" y="2283" width="120" height="60" as="geometry" />
        </mxCell>
        <mxCell id="hdwY8uAqlynun0E91TMd-24" value="192.168.99.100" style="text;html=1;align=center;verticalAlign=middle;whiteSpace=wrap;rounded=0;" parent="1" vertex="1">
          <mxGeometry x="5710" y="2343" width="106" height="30" as="geometry" />
        </mxCell>
        <mxCell id="hdwY8uAqlynun0E91TMd-25" value="192.168.99.151" style="text;html=1;align=center;verticalAlign=middle;whiteSpace=wrap;rounded=0;" parent="1" vertex="1">
          <mxGeometry x="5245" y="2343" width="106" height="30" as="geometry" />
        </mxCell>
        <mxCell id="sSDNLOhi34IHWkg_GrEN-8" value="Status !OK" style="shape=umlFrame;whiteSpace=wrap;html=1;pointerEvents=0;width=70;height=20;fillColor=#f8cecc;strokeColor=#b85450;" vertex="1" parent="1">
          <mxGeometry x="990" y="470" width="150" height="60" as="geometry" />
        </mxCell>
        <mxCell id="sSDNLOhi34IHWkg_GrEN-9" value="Status OK" style="shape=umlFrame;whiteSpace=wrap;html=1;pointerEvents=0;width=70;height=20;fillColor=#d5e8d4;strokeColor=#82b366;" vertex="1" parent="1">
          <mxGeometry x="990" y="540" width="150" height="70" as="geometry" />
        </mxCell>
        <mxCell id="sSDNLOhi34IHWkg_GrEN-11" value="database" style="shape=note;whiteSpace=wrap;html=1;backgroundOutline=1;darkOpacity=0.05;fillColor=#dae8fc;strokeColor=#6c8ebf;size=21;" vertex="1" parent="1">
          <mxGeometry x="2315" y="350" width="60" height="60" as="geometry" />
        </mxCell>
        <mxCell id="sSDNLOhi34IHWkg_GrEN-12" value="Set" style="edgeStyle=orthogonalEdgeStyle;rounded=0;orthogonalLoop=1;jettySize=auto;html=1;curved=0;entryX=0;entryY=0;entryDx=30;entryDy=0;entryPerimeter=0;" edge="1" parent="1" source="z2xaD7FAKLGy1QCzAx4l-31" target="sSDNLOhi34IHWkg_GrEN-11">
          <mxGeometry relative="1" as="geometry">
            <Array as="points">
              <mxPoint x="2345" y="330" />
            </Array>
          </mxGeometry>
        </mxCell>
        <mxCell id="sSDNLOhi34IHWkg_GrEN-13" value="Disable CWMP" style="shape=umlFrame;whiteSpace=wrap;html=1;pointerEvents=0;fillColor=#f8cecc;strokeColor=#b85450;" vertex="1" parent="1">
          <mxGeometry x="2170" y="480" width="510" height="130" as="geometry" />
        </mxCell>
        <mxCell id="sSDNLOhi34IHWkg_GrEN-14" value="send command" style="edgeStyle=orthogonalEdgeStyle;rounded=0;orthogonalLoop=1;jettySize=auto;html=1;curved=0;" edge="1" parent="1" source="z2xaD7FAKLGy1QCzAx4l-31" target="z2xaD7FAKLGy1QCzAx4l-34">
          <mxGeometry relative="1" as="geometry">
            <Array as="points">
              <mxPoint x="2350" y="440" />
              <mxPoint x="2350" y="440" />
            </Array>
          </mxGeometry>
        </mxCell>
        <mxCell id="sSDNLOhi34IHWkg_GrEN-16" value="close command" style="edgeStyle=orthogonalEdgeStyle;rounded=0;orthogonalLoop=1;jettySize=auto;html=1;curved=0;" edge="1" parent="1" source="z2xaD7FAKLGy1QCzAx4l-31" target="z2xaD7FAKLGy1QCzAx4l-34">
          <mxGeometry relative="1" as="geometry">
            <mxPoint x="2260" y="500" as="sourcePoint" />
            <mxPoint x="2450" y="500" as="targetPoint" />
            <Array as="points">
              <mxPoint x="2350" y="500" />
              <mxPoint x="2350" y="500" />
            </Array>
          </mxGeometry>
        </mxCell>
        <mxCell id="sSDNLOhi34IHWkg_GrEN-17" value="" style="html=1;points=[[0,0,0,0,5],[0,1,0,0,-5],[1,0,0,0,5],[1,1,0,0,-5]];perimeter=orthogonalPerimeter;outlineConnect=0;targetShapes=umlLifeline;portConstraint=eastwest;newEdgeStyle={&quot;curved&quot;:0,&quot;rounded&quot;:0};" vertex="1" parent="1">
          <mxGeometry x="2450" y="520" width="10" height="40" as="geometry" />
        </mxCell>
        <mxCell id="sSDNLOhi34IHWkg_GrEN-18" value="close current session" style="html=1;align=left;spacingLeft=2;endArrow=block;rounded=0;edgeStyle=orthogonalEdgeStyle;curved=0;rounded=0;" edge="1" target="sSDNLOhi34IHWkg_GrEN-17" parent="1">
          <mxGeometry relative="1" as="geometry">
            <mxPoint x="2455" y="500" as="sourcePoint" />
            <Array as="points">
              <mxPoint x="2485" y="500" />
              <mxPoint x="2485" y="530" />
            </Array>
          </mxGeometry>
        </mxCell>
        <mxCell id="sSDNLOhi34IHWkg_GrEN-20" value="Response&amp;nbsp; corresponding status" style="edgeStyle=orthogonalEdgeStyle;rounded=0;orthogonalLoop=1;jettySize=auto;html=1;curved=0;" edge="1" parent="1" source="z2xaD7FAKLGy1QCzAx4l-31" target="z2xaD7FAKLGy1QCzAx4l-29">
          <mxGeometry relative="1" as="geometry">
            <Array as="points">
              <mxPoint x="2140" y="630" />
              <mxPoint x="2140" y="630" />
            </Array>
          </mxGeometry>
        </mxCell>
        <mxCell id="sSDNLOhi34IHWkg_GrEN-21" value="Status !OK" style="shape=umlFrame;whiteSpace=wrap;html=1;pointerEvents=0;fillColor=#f8cecc;strokeColor=#b85450;width=70;height=15;" vertex="1" parent="1">
          <mxGeometry x="1940" y="640" width="130" height="70" as="geometry" />
        </mxCell>
        <mxCell id="sSDNLOhi34IHWkg_GrEN-24" value="Connect to&lt;div&gt;ACS server&lt;/div&gt;" style="shape=umlFrame;whiteSpace=wrap;html=1;pointerEvents=0;width=80;height=30;" vertex="1" parent="1">
          <mxGeometry x="-20" y="200" width="870" height="620" as="geometry" />
        </mxCell>
        <mxCell id="sSDNLOhi34IHWkg_GrEN-27" value="Store &amp;amp;&lt;div&gt;fill data&lt;/div&gt;" style="endArrow=classic;html=1;rounded=0;" edge="1" parent="1" target="z2xaD7FAKLGy1QCzAx4l-29">
          <mxGeometry width="50" height="50" relative="1" as="geometry">
            <mxPoint x="2025" y="749" as="sourcePoint" />
            <mxPoint x="2025" y="779" as="targetPoint" />
            <Array as="points">
              <mxPoint x="1990" y="749" />
              <mxPoint x="1990" y="790" />
              <mxPoint x="2010" y="790" />
            </Array>
          </mxGeometry>
        </mxCell>
        <mxCell id="sSDNLOhi34IHWkg_GrEN-28" value="Status OK" style="shape=umlFrame;whiteSpace=wrap;html=1;pointerEvents=0;fillColor=#d5e8d4;strokeColor=#82b366;width=70;height=15;" vertex="1" parent="1">
          <mxGeometry x="1940" y="719" width="130" height="81" as="geometry" />
        </mxCell>
        <mxCell id="sSDNLOhi34IHWkg_GrEN-29" value="Response correspoding status" style="edgeStyle=orthogonalEdgeStyle;rounded=0;orthogonalLoop=1;jettySize=auto;html=1;curved=0;strokeWidth=2;" edge="1" parent="1" source="dyV9W-r_03pvVqOs8cW6-8" target="dyV9W-r_03pvVqOs8cW6-7">
          <mxGeometry relative="1" as="geometry">
            <Array as="points">
              <mxPoint x="250" y="650" />
              <mxPoint x="250" y="650" />
            </Array>
          </mxGeometry>
        </mxCell>
        <mxCell id="sSDNLOhi34IHWkg_GrEN-32" value="Status !OK" style="shape=umlFrame;whiteSpace=wrap;html=1;pointerEvents=0;width=70;height=20;fillColor=#f8cecc;strokeColor=#b85450;" vertex="1" parent="1">
          <mxGeometry x="20" y="664" width="150" height="66" as="geometry" />
        </mxCell>
        <mxCell id="sSDNLOhi34IHWkg_GrEN-33" value="Status OK" style="shape=umlFrame;whiteSpace=wrap;html=1;pointerEvents=0;width=70;height=20;fillColor=#d5e8d4;strokeColor=#82b366;" vertex="1" parent="1">
          <mxGeometry x="20" y="740" width="150" height="70" as="geometry" />
        </mxCell>
      </root>
    </mxGraphModel>
  </diagram>
</mxfile>
